<svg id="Layer_1" data-name="Layer 1" xmlns="http://www.w3.org/2000/svg" viewBox="0 0 464.36 464.36"><defs><style>.cls-1{fill:#3b4e6b;}</style></defs><title>logo</title><path class="cls-1" d="M331.64,232.62a4.27,4.27,0,0,0-3.77-3.77,8.36,8.36,0,0,1-2.32-2.75l.73-.1c1.53-.21,3.44-.47,4.53-2.11a4.49,4.49,0,0,0,.45-3.78c-1-3.81-3.57-6.46-5.85-8.81a21.86,21.86,0,0,1-3.17-3.72c-.06-.14-.34-.93-.54-1.52-3.49-10-6.69-16.95-11-18.15a4.67,4.67,0,0,0-4.38,1l-.13.11h0l-.63,0,0-3.29c0-.22,0-.45,0-.68a7.7,7.7,0,0,1,2.47-3.79c1.31-1.36,2.95-3,2.69-5.51s-2.32-4.85-7.13-8.12c-2.11-1.44-4.44-1.71-6.69-2a14.78,14.78,0,0,1-3.9-.8c.18-1,.49-2.34.63-2.82a2.42,2.42,0,0,0-.54-2.34c-5.13-5.56-6.12-10.13-7.18-15a41.31,41.31,0,0,0-3.31-10.37c-3-6-4-7.71-10.09-10.9a5,5,0,0,0-6,.61l-.1.08c-.29-.35-.75-1.07-.92-1.34-.91-1.43-2-3.2-4-3.67-7.41-1.8-12.19-1.54-15.49.84-2.6,1.88-4.17,5-4.78,9.58-.57.14-1.27.28-1.91.4,0-.11,0-.22,0-.31a6.38,6.38,0,0,0-.18-2.28c-.33-1-1.05-2-5.91-3.29-3.09-.82-4.34-.79-5.32.1-2,1.76-1.77,4.94-1.59,7.75,0,.56.1,1.68.07,2.16-1.24,1.66-2.24,3.17-3.21,4.63s-2,2.93-3.17,4.55c-.94,1.26-1.74,2.27-2.46,3.17-3.16,4-4.6,5.79-6.07,14a26.62,26.62,0,0,0-.34,5.61,11.81,11.81,0,0,1-.32,3.9c-1,3.45-10.07,21.48-12.31,23.44a20.09,20.09,0,0,1-3,0c-3.2-.14-7.58-.34-11.51,1.69a50.57,50.57,0,0,0-13.76,11.07c-4.32,5.32-8.62,15.31-13.12,30.54-1.64,5.54-.9,9.91-.25,13.76a28.39,28.39,0,0,1,.62,6.57c-.12,2.21-.91,4.21-2,7-.69,1.75-1.47,3.73-2.3,6.26-.65,2,.83,3.82,2.39,5.58a4.39,4.39,0,0,0-2.78,1.79,3.23,3.23,0,0,0-.36,2.57c.57,2.23,2.79,3.94,4.76,5.46.47.36,1.19.92,1.62,1.31-1.16,3.11-8.15,13.79-13.29,17.79a7.31,7.31,0,0,1-1.22.8,7.52,7.52,0,0,1-.09-1.28,2.4,2.4,0,0,0-1.11-2c-.61-.39-2.76-1.44-5.06,1.31-2,2.39-3.64,7.08-4.1,8.47-2,6.12-1.39,7.5-.57,8.38,3.39,3.65,6.66.68,8.05-.58,1.75-1.59,2.29-1.85,3.2-1.48,1.75.71,3.44,3.08,5.08,5.36a32.39,32.39,0,0,0,3.26,4.11c2.94,2.94,6,6,9.46,7.61.7.33,1.56.77,2.51,1.26,3,1.53,6.41,3.28,9,3.72,3.3.56,7.45-.8,10.78-1.9.85-.28,2.6-.86,3.05-.92,2.76.52,5.69,2.14,8.54,3.71a47.08,47.08,0,0,0,7.21,3.44,34.61,34.61,0,0,0,11.16,1.66c30.58,0,78.32-31.55,86.63-41.61,2.51-3-.56-7.11-4.81-12.75-2.6-3.44-6.93-9.19-6.33-11.36v0l.37.58c.89,1.44,1.66,2.69,3.1,3a2.69,2.69,0,0,0,2.11-.45c2.46-1.73,4.76-3.62,7-5.47l2.45-2c.26-.21,1.56-1,2.6-1.63,8.1-4.95,11.51-7.43,11.6-10a9,9,0,0,0-.13-1.44c-1.43-11.33-.67-14.28-.4-14.93C325,246.22,332.41,238.07,331.64,232.62Zm-14.48,11.2c-3.58,1.09-4.27,6.52-2.58,20l.05.36c-.86,1-4,3.14-9.25,6.36a36.37,36.37,0,0,0-3.09,2c-.82.65-1.67,1.35-2.54,2.06-1.63,1.35-3.32,2.74-5.05,4-1-1.63-2.69-4.29-5.27-3.24a6,6,0,0,0-3.82,4c-1.23,4.45,3,10.09,7.12,15.54,1.35,1.78,4.38,5.81,4.69,7.08-4.2,4.78-20,16.28-39.5,26.08-13.33,6.69-37.9,17.14-52.75,12.08a43,43,0,0,1-6.46-3.12c-3.21-1.76-6.52-3.59-10.08-4.23a3.52,3.52,0,0,0-.66-.06,17.32,17.32,0,0,0-4.69,1.16c-2.66.88-6.32,2.09-8.45,1.72-1.88-.31-5.07-2-7.63-3.26-1-.5-1.91-1-2.67-1.33-2.72-1.27-5.32-3.88-8.08-6.64a36.85,36.85,0,0,1-3.2-3.93c-2-2.73-4.13-5.55-6.76-6.61-3.9-1.57-6.62.9-8.24,2.38l-.56.5a36.9,36.9,0,0,1,1.49-4.89c.49-1.3.95-2.31,1.33-3.08a3.86,3.86,0,0,0,3.36,1.8c3.09,0,7.2-3.47,12.57-10.62.3-.4,7.39-9.89,7.41-13.36,0-1.95-1.69-3.26-3.66-4.78-.59-.45-1.37-1-2-1.62,1.42-.36,3.75-1.22,3.48-3.81-.12-1.17-1-2.11-2.12-3.42a22.11,22.11,0,0,1-1.51-1.82c.71-2.12,1.39-3.85,2-5.38,1.21-3.07,2.17-5.5,2.34-8.49a33.53,33.53,0,0,0-.68-7.65c-.62-3.66-1.21-7.11.11-11.58,4.26-14.41,8.38-24.12,12.25-28.86a45.57,45.57,0,0,1,12.22-9.84c2.8-1.44,6.28-1.28,9.09-1.15a13.88,13.88,0,0,0,4.95-.29c4.66-1.6,15.14-26.37,15.21-26.61A16.21,16.21,0,0,0,216,166a21.79,21.79,0,0,1,.27-4.66c1.25-7.05,2.14-8.17,5.1-11.88.73-.92,1.56-2,2.55-3.28,1.28-1.72,2.3-3.26,3.31-4.77s2-3,3.26-4.68c.92-1.22.82-2.84.68-5.09a27.29,27.29,0,0,1-.06-3.11,28.09,28.09,0,0,1,3.43,1c-.06,1.51-.13,3.77,1.65,5s8-.87,8-.9a2.65,2.65,0,0,0,1.71-2.23c.33-3.88,1.3-6.34,3-7.53,2-1.48,5.57-1.51,11.42-.1a10.29,10.29,0,0,1,1.16,1.6,8,8,0,0,0,3,3.25,4.51,4.51,0,0,0,5-.78c.18-.14.39-.3.4-.32a1.43,1.43,0,0,1,.41.19c5,2.59,5.3,3.29,8,8.76a37.29,37.29,0,0,1,2.92,9.26c1.09,5,2.21,10.12,7.46,16.21-.09.41-.18.89-.3,1.47-.36,1.83-.7,3.55.69,4.63,2.28,1.79,4.94,2.1,7.3,2.37a10.44,10.44,0,0,1,4.53,1.17c4.78,3.25,5,4.49,5.05,4.61,0,.29-.9,1.19-1.37,1.68a11.93,11.93,0,0,0-3.78,6.5,2.17,2.17,0,0,0,0,.49c0,.53,0,3.93-.06,5.16v.4a2.83,2.83,0,0,0,1.77,2.75c1.31.61,5.38,1.23,7-.37l.15-.16c1,.53,3.35,3.13,7.48,15a13.89,13.89,0,0,0,.84,2.2,24.73,24.73,0,0,0,4,4.82c1.88,1.94,3.82,3.94,4.56,6.41l-.89.14c-1.65.22-3.91.52-5.14,2.54a2.45,2.45,0,0,0-.26,1.87,13.24,13.24,0,0,0,5.34,7.53,2.46,2.46,0,0,0,1.31.45C326.72,235.92,322.41,242.23,317.16,243.82Z"/><path class="cls-1" d="M247.37,301.87c-.62-1.85-1.11-3.75-1.65-5.86a10.11,10.11,0,0,0-5.48-6.86l-.81-.42-.24,5.28.21.21c.33.31.63.6.92.86.57.54,1.07,1,1.53,1.5,2.52,2.7,3,5.07,1.79,8.45a28.29,28.29,0,0,1-3.06,6.13c-1.65,2.43-3.68,3.65-6,3.61a3.89,3.89,0,0,0-3.52,1.77l-.74,1,1.12.12,1.58.18c.65.08,1.24.15,1.81.2.24,0,.48,0,.72.06,7.27.4,9.82-3.46,12-10.73A8.84,8.84,0,0,0,247.37,301.87Z"/><path class="cls-1" d="M235.52,203.45a2.77,2.77,0,0,1-.48.11h0A2.16,2.16,0,0,0,235.52,203.45Z"/><path class="cls-1" d="M235.08,203.55h0Z"/><path class="cls-1" d="M285.88,183.7c-1.42-.36-2.85-.74-4.27-1.12a37.41,37.41,0,0,1,4.33,1.79Z"/><path class="cls-1" d="M285.94,184.37v0c-.29.29-.59.57-.89.85l.95-.83S286,184.39,285.94,184.37Z"/><path class="cls-1" d="M277,181.45l-.65-.15Z"/><path class="cls-1" d="M228,303.85a36,36,0,0,0-2.17,4.23l-4.33-1.28a32,32,0,0,0-2.21,4.32,19.68,19.68,0,0,0,4.39,1.36c.49-1.56,1.85-2.7,2.21-4.27a19.38,19.38,0,0,0,4.3,1.32c.49-1.59,1.91-2.74,2.24-4.36Z"/><path class="cls-1" d="M210.3,284.19l-.17.33c-.22.45-.48.91-.73,1.34a15.59,15.59,0,0,0-1,2l-3.72-1.11-.16.34c-.22.45-.49.9-.74,1.34a12.54,12.54,0,0,0-1.2,2.47l-.12.37.37.16a17.71,17.71,0,0,0,3.9,1.2l.38.07.11-.36a6.54,6.54,0,0,1,.88-1.64,8.19,8.19,0,0,0,.9-1.61,16.46,16.46,0,0,0,3.38,1l.37.06.11-.36a7.12,7.12,0,0,1,.89-1.64,6.22,6.22,0,0,0,1.07-2.19l.08-.39Z"/><path class="cls-1" d="M207.05,285.15l.37.06.12-.36a6.71,6.71,0,0,1,.88-1.64,6.22,6.22,0,0,0,1.07-2.19l.08-.39L205,279.27l-.16.33c-.23.46-.49.91-.74,1.34a11.52,11.52,0,0,0-1.2,2.47l-.12.38.36.15A17.42,17.42,0,0,0,207.05,285.15Z"/><path class="cls-1" d="M230.46,289.71l-.48.64c0,.07-5.41,7.08-9.58,6.91a3.67,3.67,0,0,1-3-2.1l-.51-.86-.41.92c-.75,1.67-2.44,4.3-3.76,4.28-.72,0-1.42-.86-2-2.45l-.41-1.1-.54,1.06c-1,1.94-2.91,4.63-4.14,4.53-.64,0-1.23-.93-1.67-2.48l-.36-1.31L203,299c-.83,1.7-2.65,4.39-4.06,4.33-.95,0-1.64-1.34-2-2.44l-.42-1.11-.54,1.08c-.89,1.8-2.56,4.14-3.75,4.36a19.54,19.54,0,0,0-2.48-3.26l-3.09,5.35.18.24c.36.48.71.92,1,1.34a17.57,17.57,0,0,1,1.73,2.39c1.57,2.79,1.2,5.1-1.1,6.87a16.81,16.81,0,0,1-10,3.68c-2.78,0-4.64-.51-5.71-1.65s-1.39-2.93-.95-5.44c.14-.8.36-1.61.57-2.4s.37-1.36.51-2.05c.08-.36-.15-.66-.42-1-.12-.15-.26-.34-.4-.55l-.55-.88-.37,1c-1.68,4.34-2.66,8-2,12,.58,3.42,2.42,5.11,6.16,5.68l.74.08h0c2.09.37,15.25.11,18.14-8.55a13.66,13.66,0,0,0-.13-8.85,6.31,6.31,0,0,0,3.15-2.19,4.14,4.14,0,0,0,2.43.6,6.49,6.49,0,0,0,4.34-2.5,5.88,5.88,0,0,0,7.07-1.93,4.14,4.14,0,0,0,2.43.6,6.5,6.5,0,0,0,4.33-2.49s2.9,2.34,9.16-1.16S230.46,289.71,230.46,289.71Z"/><polygon class="cls-1" points="255.09 228.39 255.09 228.39 255.09 228.38 255.09 228.39"/><path class="cls-1" d="M292.09,203.2c-2.49-.35-5-.73-7.47-1a23.58,23.58,0,0,0-2.43-.06c-.56,3.65-1.09,7.12-1.62,10.59a1.48,1.48,0,0,0,1.42,1.8,46.93,46.93,0,0,0,7.23.94c3.07,0,3.08-.17,3.64-3.24.14-.71.26-1.41.38-2.12a46.88,46.88,0,0,0,.73-4.68C294.07,203.68,293.76,203.44,292.09,203.2Z"/><path class="cls-1" d="M244.11,231.3c.07-3.65.33-7.3.48-11a1.54,1.54,0,0,0-.15-1h0a.93.93,0,0,0-.14-.14l-.05,0a.37.37,0,0,0-.19-.07h0c-.61-.05-1.16,1.21-1.16,1.21l-.28.58h0q-1.77,3.68-3.44,7.38a5.21,5.21,0,0,0-.47,2c-.08,5.49-.1,11-.17,16.47,0,4.07.09,8.16-.27,12.22-.32,3.62-1.77,7-5.92,8.74-3.56,1.48-7.39,1.36-11.27.83a2.8,2.8,0,0,1,.15-.68c3.56-6,4.22-12.42,3.82-19a123.73,123.73,0,0,1-.34-15.16c.08-1,.22-2.32.29-3,0-.15,0-.31.05-.48v0h0c.08-1,.05-2.18-.6-2.21h-.07c-.62,0-1.18,1.31-1.18,1.31h0c-2.83,5.35-4.62,10.82-3.86,16.89a114.1,114.1,0,0,1,.5,14.8A14.11,14.11,0,0,1,218,268.4l-3.6-.42-.34.47A12.77,12.77,0,0,0,215,270c1.71,2.2,4.17,3.13,7.2,3.35,5.85.45,10.76-.9,14.56-4.9a25,25,0,0,0,7.12-17.21C244,244.61,244,238,244.11,231.3Z"/><path class="cls-1" d="M205.16,239.82l-9.26-4.21c-2,3-4.61,5.57-6.12,8.78a43.09,43.09,0,0,0,9.18,4.28C200.52,245.36,204,243.26,205.16,239.82Z"/><path class="cls-1" d="M211.32,252.55a1,1,0,0,0-.83.26h0l0,0a8.64,8.64,0,0,0-1,1.15h0c-.48.58-.93,1.18-1.42,1.76a68.13,68.13,0,0,1-4.83,5.52,9.48,9.48,0,0,1-7.47,2.57c-1.09-.08-2.16-.34-3.25-.42a16.47,16.47,0,0,0-6.17.2,19.09,19.09,0,0,0-8.51,5.3,30.6,30.6,0,0,0-6.27,10.56,3.55,3.55,0,0,0-.13.76c0,.73.32,1,.7,1s1-.79,1-.79v0h0l1.88-2.34a31.34,31.34,0,0,1,2.61-2.8,9.16,9.16,0,0,1,3.77-2.11c2.44-.56,7.36.53,7.36.53h0c2.37.55,6.1,1.19,8.68.46,7.22-2,13.91-18.39,13.91-18.39C212.37,253.82,212,252.68,211.32,252.55Z"/><path class="cls-1" d="M311.55,233.52c-.66-.5-1.7.14-2.36,1.12h0c-.5.63-.87,1.33-1.33,2-1.16,1.66-2.24,2.14-4.56,1.63-3.57-.78-6.16-.08-8.32,2.4-2.87,3.29-3,3.27-8.16,3a6.7,6.7,0,0,0-5.64,2c-1.33,1.37-2.65,2.75-4.1,4a14,14,0,0,1-8,3.59c-4.81.51-9.49-.26-11.37-4.44-.07-.14-.12-.28-.18-.42a26.5,26.5,0,0,1-.95-4.79c-.14-1.51-.3-3-.46-4.53-.54-6.46-.7-13.54-.7-13.54V208.75s-3.82,7.13-4,7.88c-1,4.29-1.19,21.5-.62,27.39l0-1c.33,7.56,1.21,12.55,2.66,15.88a10.08,10.08,0,0,0,7.48,6.35c.37.09.75.18,1.14.25.23,0,.47.09.72.12l0,0a12.18,12.18,0,0,0,4.94-.66,15.46,15.46,0,0,0,7.8-5.77c1.77-2.45,3.43-4.95,5.09-7.46,1.44-2.18,1.54-2.25,4.46-1.58,4.36,1,7,.42,9.17-2.79,1.84-2.72,4.18-3.81,7.91-3.1a5.29,5.29,0,0,0,5.41-2,46.5,46.5,0,0,0,4-6.73h0S312.21,234,311.55,233.52Zm-56.46-5.13h0Z"/><path class="cls-1" d="M279.53,306.19c0-6.09-1.92-11.12-6.16-16.32l-.15-.19-.2.14c-2.42,1.69-4.08,4.45-5.4,8.95a8.93,8.93,0,0,1-2.93,4.89h0l-.44.28-.12.07h0A12.27,12.27,0,0,1,261,305.3h0l-.2,0-.19,0a5.67,5.67,0,0,1-3,.07l-.06,0,0,0-.06,0a.85.85,0,0,1-.31-.22h0a3,3,0,0,1-.71-1.66s0-.09,0-.14l0-.25a10.77,10.77,0,0,1,0-1.48l0-.29h0c.3-4.51,1.5-25.57-1.77-31.78l-1.18,8.15s-.93,3.79-.26,11.85a67.55,67.55,0,0,1,0,12.07c-.78,7.82,3,10.13,5.69,10.27h1c7.84-.3,10.38-6.09,10.38-6.09,3.4,1.87,6.39,2.09,9.14.7l.18-.09Zm-8.33-4.67c-2.52-.92-.13-5.89,1.68-6.64a10.49,10.49,0,0,1,2.77,6.41A5.55,5.55,0,0,1,271.2,301.52Z"/><path class="cls-1" d="M279.2,174.78a7.21,7.21,0,0,0-6.94,1.92,27.15,27.15,0,0,0-5.24,7.83l-4,8.13a7.35,7.35,0,0,1-5.18-7c-.44-6.87-.37-20.54-.17-27.41.2-7.17,1.15-14.31,1.79-21.46.06-.74.24-1.6-.7-1.72-.38,0-1.09.6-1.27,1.07-2,5.2-4.09,10.21-4,16.12.23,9.61-1,26-1.37,35.65a9.78,9.78,0,0,1-1.34,4.65h0a17.52,17.52,0,0,1-3.6,4.33l-.12.1-.17.14c-2.09,1.66-3.08,1.63-3.08,1.63-2.12.29-2.81-2.39-2.81-2.39s-3.47,4.29-6.22,5a2.41,2.41,0,0,1-.44.08h-.05a2.94,2.94,0,0,1-.42,0c-2.8-.06-1.78-2.92-1.78-2.92-.81.79-1.58,1.61-2.43,2.34-1.58,1.36-3.26,2.43-5.17,2.44h-.42l-.32,0-.16,0-.45-.1h0a7.36,7.36,0,0,1-3.55-2.28c-1.67,1.5-3.28,3-5,4.46-2.84,2.44-6,3.56-9.76,2.38a23.13,23.13,0,0,1-3.81-1.48c-4-2.1-7.89-1.64-11.79.19-6.53,3.06-10.84,8.33-14.33,14.37l-.12.21c-.11.2-.21.43-.31.66-.39,1-.57,2,.07,2a3.36,3.36,0,0,0,1.77-1c1.54-1.29,2.92-2.77,4.48-4,3.57-2.89,7.47-3.88,11.81-1.74a15.8,15.8,0,0,0,2.16.93,15.59,15.59,0,0,0,3.32.8,17,17,0,0,0,12-3.9c2.59-2,4.9-4.4,7.46-6.73,3.47,2,7,1.76,10.49-.67a2,2,0,0,1,1.4-.3c2.86.53,5.2-.49,7.39-2.2a1.87,1.87,0,0,1,1.52-.31,6,6,0,0,0,1.29.33h.14l.2,0c6.9.59,12.4-9.3,12.4-9.3,1.08,2.42,2,4.76,3.13,7a6.91,6.91,0,0,0,6.1,3.85,18,18,0,0,0,5.08-.67c6.2-1.57,10.73-5.57,14.79-10.28s8.38-9.46,12.54-14.21C294.54,180.74,280.88,175.15,279.2,174.78Zm5.85,10.48c-4.9,4.26-10.38,7.37-17.58,7.93.74-1.86,1.35-3.47,2.09-5,.84-1.73,1.84-3.38,2.8-5.05a3.52,3.52,0,0,1,4-1.83l.65.15c3.33.81,8.9,2.7,8.92,2.92A7,7,0,0,1,285.05,185.26Z"/><path class="cls-1" d="M41,277.49l2.39,7.56-2.45.77,3.81,12,6.8-2.15L48.81,287a12.64,12.64,0,0,1-.24-7.85,8.88,8.88,0,0,1,6.15-6l5.81-1.83a11.46,11.46,0,0,1,14.39,7.47l1.67,5.29a11.46,11.46,0,0,1-7.48,14.38l-2.5.79-2.38-7.55,2.5-.79a3.41,3.41,0,0,0,2.06-1.75,3.33,3.33,0,0,0,.24-2.69l-1.67-5.29a3.56,3.56,0,0,0-4.44-2.31l-5.81,1.84a1.34,1.34,0,0,0-1,.89,5.13,5.13,0,0,0,.26,3l3.55,11.22a5.3,5.3,0,0,1-3.48,6.6L39.58,307.8,31,280.65Z"/><path class="cls-1" d="M37.68,238.33a12.05,12.05,0,0,1,9,2.37,12.52,12.52,0,0,1,17.41-1.77,12,12,0,0,1,4.69,8.44l.71,5.81v.06a12.06,12.06,0,0,1-2.65,9.19,12.6,12.6,0,0,1-17.35,2.31,12,12,0,0,1-8.16,4.41,12.24,12.24,0,0,1-9.26-2.64,12,12,0,0,1-4.67-8.37l-.72-5.87v-.07a12.59,12.59,0,0,1,11-13.87Zm-.69,22a4.52,4.52,0,0,0,3.42,1,4.32,4.32,0,0,0,3.08-1.76,4.44,4.44,0,0,0,1-3.42l-.65-5.82a4.45,4.45,0,0,0-1.73-3.11,4.54,4.54,0,0,0-3.42-1,4.68,4.68,0,0,0-4.12,5.12v.06l.72,5.82A4.38,4.38,0,0,0,37,260.31Zm23.95-12.07a4.69,4.69,0,0,0-1.78-3.08,4.52,4.52,0,0,0-3.43-1,4.39,4.39,0,0,0-3.09,1.73,4.58,4.58,0,0,0-1,3.45l.66,5.88a4.62,4.62,0,0,0,5.18,4,4.58,4.58,0,0,0,3.11-1.73,4.46,4.46,0,0,0,1-3.42Z"/><path class="cls-1" d="M29,231.14l-6.18-.32,1-18.89,6.18.33-.24,4.61-1.56-.08-.13,2.52,15.47.81.09-1.6,4.61.24-.41,7.81-4.61-.24.08-1.6-15.47-.8-.13,2.52,1.56.08Z"/><path class="cls-1" d="M31.28,193.87l-4.55-.82,1.38-7.69,4.55.82-.27,1.54,15.25,2.74.28-1.54,4.55.82-1.39,7.7-4.55-.82.29-1.61-5.35-1-1.37,7.59,5.35,1,.29-1.57,4.54.82-1.38,7.69-4.55-.82.29-1.57-15.26-2.74L29.1,206l-4.55-.82,1.39-7.7,4.54.82-.28,1.58,5.36,1,1.36-7.59-5.35-1Z"/><path class="cls-1" d="M72.62,152.94a14.58,14.58,0,0,1-11,27l-3.9-1.59,3-7.34,3.9,1.59a6.36,6.36,0,0,0,5.06,0,6.7,6.7,0,0,0,3.54-8.7,6.29,6.29,0,0,0-3.59-3.56l-19.42-7.92-1,2.55-7.34-3,5.06-12.43,7.34,3-1,2.54Z"/><path class="cls-1" d="M64.3,111.73,99,122.19l1.84-2.66,6.52,4.5-5.12,7.43-10.17-3.09-6.51,9.44,6.5,8.41L87,153.65l-6.53-4.51,1.84-2.66-17-22.12-.73,1.06L58,120.92Zm16.17,19.52L84.1,126l-10-3.07Z"/><path class="cls-1" d="M119.13,98.72l5.81-5.4,7.26,7.82L108.88,122.8l-5.39-5.8,2-1.87L87.4,95.65l-2,1.87L80,91.71l9.83-9.13,5.39,5.81-2,1.87,18.1,19.48,9.69-9Z"/><path class="cls-1" d="M129,52a11.91,11.91,0,0,1,16.31,4.09L147,58.76l-6.8,4.08-1.63-2.72a3.84,3.84,0,0,0-2.43-1.81,3.79,3.79,0,0,0-3,.45l-7.43,4.45a4,4,0,0,0-1.36,5.43q1.78,3,3.76,3.12t7.06-2.14q2.14-.93,3.33-1.38a26.09,26.09,0,0,1,3.1-.94,14.68,14.68,0,0,1,3.56-.46q6.71,0,10.84,6.94a11.39,11.39,0,0,1,1.32,9,11.52,11.52,0,0,1-5.4,7.29l-7.43,4.45a11.87,11.87,0,0,1-16.31-4.09l-1.6-2.67,6.8-4.07,1.6,2.66a3.8,3.8,0,0,0,2.43,1.82,3.86,3.86,0,0,0,3-.45l7.43-4.45a3.83,3.83,0,0,0,1.81-2.44,3.77,3.77,0,0,0-.45-3c-1.19-2-2.44-3-3.76-3.08s-3.67.64-7.06,2.1L135,78.29a23.54,23.54,0,0,1-3.08,1,14.76,14.76,0,0,1-3.57.46c-4.46,0-8.09-2.35-10.86-7a11.85,11.85,0,0,1,4.08-16.31Z"/><path class="cls-1" d="M170.35,35l21.46,29.21,3.07-1,2.51,7.52-8.56,2.86L182.56,65l-10.87,3.64.14,10.62-8.56,2.86-2.51-7.52,3.06-1-.33-27.92-1.21.4-2.51-7.51Zm1.2,25.32,6.07-2-6.18-8.48Z"/><path class="cls-1" d="M230.62,24.49A11.92,11.92,0,0,1,242.84,36l.09,3.17-7.92.22-.09-3.16a3.94,3.94,0,0,0-4.08-3.85l-8.65.24a4,4,0,0,0-3.85,4.07q.1,3.48,1.75,4.56c1.09.72,3.5,1.25,7.21,1.59,1.55.17,2.74.3,3.58.42A27,27,0,0,1,234,44a14.55,14.55,0,0,1,3.33,1.34q5.83,3.32,6,11.36a11.9,11.9,0,0,1-11.54,12.21l-8.66.25A11.87,11.87,0,0,1,211,57.62l-.09-3.11,7.93-.22.08,3.1A4,4,0,0,0,223,61.25l8.65-.25a4,4,0,0,0,3.85-4.07c-.06-2.32-.66-3.83-1.77-4.53s-3.51-1.24-7.19-1.62L223,50.39a22.43,22.43,0,0,1-3.16-.67,14.55,14.55,0,0,1-3.33-1.35q-5.82-3.3-6.05-11.41A11.87,11.87,0,0,1,222,24.74Z"/><path class="cls-1" d="M275.05,30.06l4.3,36,3.18.61L281,74.45l-8.85-1.72-1.24-10.55L259.66,60l-5.1,9.32-8.86-1.72,1.51-7.79,3.18.62L263.84,36l-1.26-.25,1.52-7.78ZM263.63,52.69l6.28,1.22-1.2-10.42Z"/><path class="cls-1" d="M308.94,75.07l7.27,3.15L312,88,282.76,75.36l3.15-7.28,2.52,1.1L299,44.78l-2.52-1.09,3.15-7.27,12.31,5.33L308.79,49l-2.52-1.09L295.7,72.33l12.15,5.25Z"/><path class="cls-1" d="M356.25,67,345,101.43l2.62,1.89L343,109.75l-7.31-5.29L339,94.36l-9.29-6.71L321.17,94l-7.32-5.28,4.65-6.43,2.61,1.89L343.6,67.6l-1-.76,4.64-6.42ZM336.38,82.69l5.19,3.75,3.29-10Z"/><path class="cls-1" d="M375.51,115.76,392,101.32l7,8-6,5.21-1.76-2L371.5,129.79l1.76,2-6,5.21-5.94-6.8L373,100.43l-15.43,13.48,1.89,2.15-6,5.22-9-10.33,6-5.22,1.93,2.21,19.79-17.29-1.8-2.07,6-5.22,8.19,9.37Z"/><path class="cls-1" d="M415.94,137.76l-25.19,26.06,1.52,2.86-7,3.74-4.25-8,7.4-7.63L383,144.73l-10.45,1.92-4.26-8,7-3.74,1.52,2.85,27.47-5-.6-1.13,7-3.74Zm-24.75,5.43,3,5.65,7.32-7.52Z"/><path class="cls-1" d="M403.62,192.7a10.66,10.66,0,0,0-4.47-2l2.5,11.63,2.68-.58,1.67,7.75-10.43,2.24-6-27.83,3.87-.84a18.6,18.6,0,0,1,7.93,0,17.58,17.58,0,0,1,7.07,3.32L422,196.85a2.94,2.94,0,0,0,2.56.57,3.1,3.1,0,0,0,2-1.29A2.68,2.68,0,0,0,427,194l-1.45-6.74a2.63,2.63,0,0,0-1.32-1.77,3.1,3.1,0,0,0-2.33-.38l-3.22.69L417.06,178l3.22-.7a10.74,10.74,0,0,1,8.29,1.46,10.29,10.29,0,0,1,4.77,6.77l1.44,6.74a10.27,10.27,0,0,1-1.55,8.13,10.72,10.72,0,0,1-7,4.74,10.52,10.52,0,0,1-9-2Z"/><path class="cls-1" d="M433.9,217.75a15.51,15.51,0,0,1-10.56,26.67l-11.34.19a15.52,15.52,0,1,1-.52-31l11.34-.19A15,15,0,0,1,433.9,217.75Zm-22,19,11.34-.19a7.31,7.31,0,0,0,5.35-2.35,7.43,7.43,0,0,0,2.14-5.43,7.6,7.6,0,0,0-7.75-7.46l-11.34.19a7.62,7.62,0,0,0,.26,15.24Z"/><path class="cls-1" d="M435.72,267.15l-34.15-5-.4,2.71-7.84-1.14,2.08-14.3,7.84,1.14-.54,3.74L427,257.87l-.79-1.71,7.2-3.33,3.32,7.2Z"/><path class="cls-1" d="M427.42,299.45a9.67,9.67,0,0,1-12.13,6.29l-22-6.9a9.35,9.35,0,0,1-5.7-4.76,9.25,9.25,0,0,1-.67-7.33l3.51-11.17a9.66,9.66,0,0,1,12.15-6.35l4.77,1.49L405,278.29l-4.78-1.5a1.74,1.74,0,0,0-1.34.12,1.69,1.69,0,0,0-.87,1l-3.51,11.17a1.77,1.77,0,0,0,1.16,2.22l7.39,2.31a9.58,9.58,0,0,1,.36-1.74l3.5-11.17a9.68,9.68,0,0,1,12.15-6.35l5.53,1.74a9.68,9.68,0,0,1,6.35,12.15Zm-15.3-2.95,5.52,1.73a1.67,1.67,0,0,0,1.35-.12,1.71,1.71,0,0,0,.87-1l3.5-11.17a1.67,1.67,0,0,0-.12-1.35,1.71,1.71,0,0,0-1-.87L416.68,282a1.67,1.67,0,0,0-1.35.12,1.71,1.71,0,0,0-.87,1L411,294.28a1.67,1.67,0,0,0,.12,1.35A1.7,1.7,0,0,0,412.12,296.5Z"/><path class="cls-1" d="M132,364.28l9.26,7.74-4.93,5.89-2-1.67-16.27,19.47,2,1.67-4.93,5.9L105.19,395l4.93-5.9,2,1.71,12.29-14.7-18.77,8.43,4.51-21.43L97.37,378.41l2,1.71L94.48,386l-10-8.35,4.94-5.9,2,1.71L107.74,354l-2-1.71,4.93-5.9,9.26,7.74-3.6,17.11Z"/><path class="cls-1" d="M160.68,381.61l-5.49,34.73,2.79,1.42-3.46,6.86-7.82-3.95,1.64-10.18-9.93-5-7.22,7.35-7.82-3.95,3.47-6.86,2.8,1.41,19-19.27-1.1-.56,3.46-6.86ZM144,399.71l5.55,2.8,1.63-10Z"/><path class="cls-1" d="M193.76,392.76l12.59,3.29-1.95,7.44-2.51-.66-5.15,19.68a14.11,14.11,0,1,1-27.3-7.14l1-3.95,4.06-15.75L172,395l1.95-7.44,12.59,3.3-1.95,7.44-2.63-.69-4.06,15.75-1,3.94a6.27,6.27,0,0,0,.65,4.88,6.09,6.09,0,0,0,3.9,3,6.47,6.47,0,0,0,7.87-4.61l5.15-19.68-2.63-.69Z"/><path class="cls-1" d="M236.41,431.64l2.48.12-.38,7.68-2.48-.12a11.39,11.39,0,0,1-1.47-.19c-.59-.11-1.41-.31-2.49-.6a10.63,10.63,0,0,1-3.21-1.52,9.83,9.83,0,0,1-2.65-2.61,19.68,19.68,0,0,1-1.37-2.32,20.1,20.1,0,0,0-3.71-5.22,7.7,7.7,0,0,0-5.06-1.9l-.65,13.35-10.34-.51.38-7.68,2.65.13,1.27-25.75-2.66-.13.38-7.68,17,.83a13.83,13.83,0,0,1,10.72,21.75,14.31,14.31,0,0,1-5.81,4.84,43.72,43.72,0,0,1,2.69,4.34,15.68,15.68,0,0,0,.87,1.58,3.25,3.25,0,0,0,1.66,1.12A7.84,7.84,0,0,0,236.41,431.64Zm-19.35-26.77-.61,12.41,6.61.32a6.21,6.21,0,1,0,.61-12.4Z"/><path class="cls-1" d="M258.44,429.57l.76,7.65-12.95,1.28-.76-7.65,2.66-.26-2.55-25.67-2.64.27-.76-7.66,13-1.28.75,7.65-2.64.27,2.54,25.66Z"/><path class="cls-1" d="M259.46,406.61l-2.48-10L287.51,389,290,399l-7.46,1.85-.63-2.53-4.07,1,6.22,25,2.58-.64,1.86,7.46-12.63,3.14L274,426.88l2.58-.64-6.22-25-4.08,1,.63,2.53Z"/><path class="cls-1" d="M313.68,413.88l2.93,7.11-12,4.94-2.92-7.11,2.46-1L294.32,394l-2.46,1-2.92-7.11,12-4.94,2.92,7.11-2.46,1,9.79,23.85Z"/><path class="cls-1" d="M320,371.89l11.16-6.69,4,6.59-2.24,1.34,10.47,17.45a14.11,14.11,0,1,1-24.2,14.51l-2.1-3.5-8.41-13.92L306.45,389l-4-6.6,11.16-6.69,4,6.6-2.33,1.4,8.42,13.91,2.1,3.5a6.23,6.23,0,0,0,3.94,2.95,6.09,6.09,0,0,0,4.85-.7,6.47,6.47,0,0,0,2.21-8.85l-10.46-17.44-2.33,1.4Z"/><path class="cls-1" d="M346.22,350.81a11.55,11.55,0,0,1,16.29.73l2.08,2.27L358.91,359l-2.07-2.27a3.84,3.84,0,0,0-5.43-.25l-6.2,5.67a3.84,3.84,0,0,0-.25,5.43q2.28,2.49,4.17,2.24t6.31-3.4c1.24-.87,2.2-1.52,2.89-2A25.13,25.13,0,0,1,361.1,363a13.61,13.61,0,0,1,3.3-1.13q6.38-1.26,11.64,4.5a11.55,11.55,0,0,1-.73,16.29l-6.2,5.67a11.5,11.5,0,0,1-16.29-.73l-2-2.23,5.68-5.19,2,2.23a3.83,3.83,0,0,0,5.43.24l6.2-5.66a3.84,3.84,0,0,0,.25-5.43q-2.28-2.49-4.18-2.2t-6.3,3.36c-1.24.87-2.2,1.53-2.87,2a20.81,20.81,0,0,1-2.75,1.51,13.75,13.75,0,0,1-3.3,1.13q-6.37,1.26-11.68-4.54a11.52,11.52,0,0,1,.73-16.3Z"/><polygon class="cls-1" points="403.83 340.94 393.39 341.05 387.57 349.71 384.24 339.82 374.2 336.95 382.58 330.73 382.2 320.3 390.71 326.35 400.51 322.77 397.39 332.72 403.83 340.94"/><polygon class="cls-1" points="60.57 340.94 71 341.05 76.82 349.71 80.16 339.82 90.19 336.95 81.81 330.73 82.19 320.3 73.68 326.35 63.88 322.77 67 332.72 60.57 340.94"/><path class="cls-1" d="M232.18,464.36A232.19,232.19,0,0,1,68,68,232.18,232.18,0,1,1,396.35,396.35,230.61,230.61,0,0,1,232.18,464.36Zm0-456.62A224.44,224.44,0,0,0,73.48,390.88a224.44,224.44,0,1,0,317.4-317.4A223,223,0,0,0,232.18,7.74Z"/></svg>