<?xml version="1.0" encoding="UTF-8" standalone="no"?>
<svg
   xmlns:dc="http://purl.org/dc/elements/1.1/"
   xmlns:cc="http://creativecommons.org/ns#"
   xmlns:rdf="http://www.w3.org/1999/02/22-rdf-syntax-ns#"
   xmlns:svg="http://www.w3.org/2000/svg"
   xmlns="http://www.w3.org/2000/svg"
   xmlns:sodipodi="http://sodipodi.sourceforge.net/DTD/sodipodi-0.dtd"
   xmlns:inkscape="http://www.inkscape.org/namespaces/inkscape"
   viewBox="0 0 122.42561 236.01159"
   height="236.0116"
   width="122.42561"
   xml:space="preserve"
   id="svg2"
   version="1.1"
   inkscape:version="0.91 r13725"
   sodipodi:docname="logo_white.svg"><sodipodi:namedview
     pagecolor="#ffffff"
     bordercolor="#666666"
     borderopacity="1"
     objecttolerance="10"
     gridtolerance="10"
     guidetolerance="10"
     inkscape:pageopacity="0"
     inkscape:pageshadow="2"
     inkscape:window-width="1301"
     inkscape:window-height="744"
     id="namedview85"
     showgrid="false"
     inkscape:zoom="1.416"
     inkscape:cx="-5.7521905"
     inkscape:cy="43.537387"
     inkscape:window-x="65"
     inkscape:window-y="24"
     inkscape:window-maximized="1"
     inkscape:current-layer="g10"
     fit-margin-top="0"
     fit-margin-left="0"
     fit-margin-right="0"
     fit-margin-bottom="0" /><metadata
     id="metadata8"><rdf:RDF><cc:Work
         rdf:about=""><dc:format>image/svg+xml</dc:format><dc:type
           rdf:resource="http://purl.org/dc/dcmitype/StillImage" /><dc:title></dc:title></cc:Work></rdf:RDF></metadata><defs
     id="defs6"><clipPath
       id="clipPath18"
       clipPathUnits="userSpaceOnUse"><path
         id="path16"
         d="m 0,250 220.906,0 0,-250 L 0,0 Z"
         inkscape:connector-curvature="0" /></clipPath></defs><g
     transform="matrix(1.3333333,0,0,-1.3333333,-85.099056,314.79293)"
     id="g10"><g
       id="g5076"
       style="fill:#ffffff;fill-opacity:1"><g
         style="fill:#ffffff;fill-opacity:1"
         id="g20"
         transform="translate(114.3105,83.6387)"><path
           inkscape:connector-curvature="0"
           d="m 0,0 c 0,0 9.103,3.833 12.696,7.186 3.592,3.353 14.132,26.348 10.299,48.865 -3.832,22.516 -17.246,51.5 -28.024,63.717 0,0 49.104,-51.261 31.379,-96.054 0,0 15.569,15.331 0.239,51.261 -7.215,16.909 -19.414,31.299 -26.165,48.299 -3.661,9.218 -4.585,19.344 -3.838,29.182 C -3.741,133.123 6.823,118.175 18.566,103.758 28.669,91.353 37.476,77.899 40.456,61.884 42.314,51.9 41.19,40.595 37.367,31.14 32.817,19.881 22.277,4.312 0,0"
           style="fill:#ffffff;fill-opacity:1;fill-rule:nonzero;stroke:none"
           id="path22" /></g><g
         style="fill:#ffffff;fill-opacity:1"
         id="g24"
         transform="translate(129.1621,110.9453)"><path
           inkscape:connector-curvature="0"
           d="m 0,0 4.791,3.833 c 0,0 8.623,44.074 -28.265,85.753 0,0 29.702,-40.721 23.474,-89.586"
           style="fill:#ffffff;fill-opacity:1;fill-rule:nonzero;stroke:none"
           id="path26" /></g><g
         style="fill:#ffffff;fill-opacity:1"
         id="g28"
         transform="translate(112.1416,121.7246)"><path
           inkscape:connector-curvature="0"
           d="m 0,0 c 0,0 -2.382,-18.205 -4.059,-19.881 0,0 -2.9,13.413 4.059,19.881 M -10.525,74.975 C 19.896,28.026 5.044,-23.714 4.325,-26.109 3.606,-28.505 0,-29.463 0,-29.463 16.754,37.607 -14.838,72.1 -14.838,72.1 3.847,38.326 0.732,8.384 -0.227,4.791 -1.184,1.198 -11.244,-7.905 -11.724,-18.205 c -0.478,-10.3 5.271,-13.893 5.271,-13.893 -0.24,-1.437 -4.072,-4.551 -4.072,-4.551 12.456,-1.916 21.079,5.988 21.079,5.988 C 27.32,28.505 -10.525,74.975 -10.525,74.975"
           style="fill:#ffffff;fill-opacity:1;fill-rule:nonzero;stroke:none"
           id="path30" /></g><g
         style="fill:#ffffff;fill-opacity:1"
         id="g32"
         transform="translate(105.6875,131.7607)"><path
           inkscape:connector-curvature="0"
           d="m 0,0 c 0,0 2.981,4.097 4.125,5.534 0,0 -0.292,35.212 -16.341,52.937 0,0 13.654,-19.93 12.216,-58.471"
           style="fill:#ffffff;fill-opacity:1;fill-rule:nonzero;stroke:none"
           id="path34" /></g><g
         style="fill:#ffffff;fill-opacity:1"
         id="g36"
         transform="translate(93.4717,86.9922)"><path
           inkscape:connector-curvature="0"
           d="m 0,0 c 0,0 -12.456,6.707 -13.414,9.342 l 0,11.498 c 0,0 2.875,-5.031 4.791,-5.989 0,0 9.821,27.307 6.707,51.261 L 0,70.184 c 0,0 7.186,-24.913 -4.551,-59.166 l 1.916,-2.156 c 0,0 17.965,38.087 -1.198,89.826 0,0 26.827,-43.355 3.833,-98.688"
           style="fill:#ffffff;fill-opacity:1;fill-rule:nonzero;stroke:none"
           id="path38" /></g><g
         style="fill:#ffffff;fill-opacity:1"
         id="g40"
         transform="translate(77.9014,98.25)"><path
           inkscape:connector-curvature="0"
           d="m 0,0 c 0,0 -6.707,6.228 -6.707,7.904 0,0 7.004,40.161 31.591,63.957 C 24.884,71.861 0.479,39.045 0,0"
           style="fill:#ffffff;fill-opacity:1;fill-rule:nonzero;stroke:none"
           id="path42" /></g><g
         style="fill:#ffffff;fill-opacity:1"
         id="g44"
         transform="translate(69.9971,110.9453)"><path
           inkscape:connector-curvature="0"
           d="m 0,0 c 0,0 -7.426,13.893 -5.988,32.098 1.437,18.205 24.671,48.147 43.475,65.393 0,0 -29.999,-35.2 -36.289,-58.446 0,0 17.597,31.173 32.631,43.148 0,0 -24.008,-32.849 -32.631,-56.802 0,0 20.354,35.512 33.868,45.704 C 35.066,71.095 7.665,33.775 0,0"
           style="fill:#ffffff;fill-opacity:1;fill-rule:nonzero;stroke:none"
           id="path46" /></g><g
         style="fill:#ffffff;fill-opacity:1"
         id="g48"
         transform="translate(137.5459,90.4648)"><path
           inkscape:connector-curvature="0"
           d="m 0,0 c -0.539,-0.539 -1.557,0.479 -1.078,1.198 0.479,0.718 4.911,2.635 4.911,2.635 z m -7.306,-5.688 c 0.838,2.095 5.509,5.808 5.39,4.011 -0.12,-1.796 -5.39,-4.011 -5.39,-4.011 m 24.672,27.007 c 0,0 -7.922,-12.318 -11.378,-13.534 C 2.533,6.569 -8.384,-4.751 -8.384,-4.751 l 0,1.916 c 0,0 -0.691,-0.957 -2.182,-1.916 l 0,-2.714 -2.928,-1.277 0,-3.034 c 0,0 10.061,5.588 14.053,9.581 3.992,3.992 5.749,7.186 7.186,7.666 L 6.9,6.42 c 0,0 9.628,5.259 10.466,14.899"
           style="fill:#ffffff;fill-opacity:1;fill-rule:nonzero;stroke:none"
           id="path50" /></g><g
         style="fill:#ffffff;fill-opacity:1"
         id="g52"
         transform="translate(120.2578,83.04)"><path
           inkscape:connector-curvature="0"
           d="M 0,0 C 0,0 2.916,1.316 3.275,1.736 L 0.88,-11.14 c 0,0 -10.779,0.241 -10.779,-12.814 0,0 -2.516,14.013 8.144,14.971 0.838,0 2.323,5.854 1.755,8.983"
           style="fill:#ffffff;fill-opacity:1;fill-rule:nonzero;stroke:none"
           id="path54" /></g><g
         style="fill:#ffffff;fill-opacity:1"
         id="g56"
         transform="translate(107.4834,59.6846)"><path
           inkscape:connector-curvature="0"
           d="m 0,0 -0.598,14.731 9.931,0.958 c 0,0 1.447,0.839 1.566,2.157 0.121,1.317 1.198,5.149 1.198,5.149 l -2.764,-0.838 0,-3.833 -1.787,0 0.12,3.593 -1.917,0 0,-3.832 -2.395,0 0.24,3.474 -1.797,-0.121 -0.718,-3.592 -1.677,0 -0.598,3.832 -2.636,-0.119 0,-2.556 c 0,0 -1.862,-0.998 -2.01,0 -0.077,0.532 0.202,1.998 -0.105,3.114 -0.208,0.753 -1.245,0.655 -2.197,0.878 0,0 1.318,-6.227 1.079,-6.826 -0.24,-0.599 4.072,0.479 4.191,-2.037 0.12,-2.514 -0.119,-5.509 -0.119,-5.509 0,0 -12.762,5.271 -18.837,10.899 0,0 9.375,-8.503 14.885,-10.779 C -1.436,6.468 -0.839,4.313 0,0"
           style="fill:#ffffff;fill-opacity:1;fill-rule:nonzero;stroke:none"
           id="path58" /></g><g
         style="fill:#ffffff;fill-opacity:1"
         id="g60"
         transform="translate(95.4678,83.958)"><path
           inkscape:connector-curvature="0"
           d="m 0,0 2.635,-1.278 1.916,-10.749 c 0,0 -14.851,7.077 -21.398,16.258 0,0 10.539,-9.82 18.683,-12.774 C 1.836,-8.543 0,-3.435 0,0"
           style="fill:#ffffff;fill-opacity:1;fill-rule:nonzero;stroke:none"
           id="path62" /></g><g
         style="fill:#ffffff;fill-opacity:1"
         id="g64"
         transform="translate(91.8213,85.6436)"><path
           inkscape:connector-curvature="0"
           d="m 0,0 c 0,0 1.89,-1.525 2.769,-1.605 0,0 0.318,-5.351 0.718,-5.749 l -2.634,1.276 c 0,0 -1.196,4.095 -0.853,6.078"
           style="fill:#ffffff;fill-opacity:1;fill-rule:nonzero;stroke:none"
           id="path66" /></g><g
         style="fill:#ffffff;fill-opacity:1"
         id="g68"
         transform="translate(91.7598,80.0605)"><path
           inkscape:connector-curvature="0"
           d="m 0,0 c 0,0 -1.242,5.255 -1.163,6.293 0,0 -2.395,1.597 -2.555,2.156 l 0,-3.733 -1.677,1.816 0,2.672 -2.475,1.959 0,-3.034 -1.836,1.436 0,2.681 c 0,0 -3.273,2.75 -3.433,3.389 l 0,-2.715 c 0,0 -11.258,13.493 -13.734,17.965 0,0 5.44,-16.019 26.873,-30.885"
           style="fill:#ffffff;fill-opacity:1;fill-rule:nonzero;stroke:none"
           id="path70" /></g><g
         style="fill:#ffffff;fill-opacity:1"
         id="g72"
         transform="translate(132.4326,110.9453)"><path
           inkscape:connector-curvature="0"
           d="m 0,0 c 0,0 -5.599,-5.987 -5.452,-8.264 0.386,-1.676 2.724,0 2.724,0 0,0 -2.516,-3.592 -2.727,-4.432 -0.212,-0.838 4.056,2.756 5.455,7.547 0,0 -1.952,-0.721 -2.731,-1.26 C -3.51,-6.946 -2.837,-3.713 0,0"
           style="fill:#ffffff;fill-opacity:1;fill-rule:nonzero;stroke:none"
           id="path74" /></g><g
         style="fill:#ffffff;fill-opacity:1"
         id="g76"
         transform="translate(109.8125,133.5815)"><path
           inkscape:connector-curvature="0"
           d="m 0,0 c 0,0 -5.599,-5.988 -5.452,-8.264 0.386,-1.677 2.724,0 2.724,0 0,0 -2.516,-3.593 -2.727,-4.432 -0.212,-0.838 4.056,2.755 5.455,7.546 0,0 -1.952,-0.721 -2.731,-1.259 C -3.51,-6.947 -2.837,-3.713 0,0"
           style="fill:#ffffff;fill-opacity:1;fill-rule:nonzero;stroke:none"
           id="path78" /></g></g></g></svg>