<?xml version="1.0" encoding="UTF-8" standalone="no"?>
<svg
   xmlns:dc="http://purl.org/dc/elements/1.1/"
   xmlns:cc="http://creativecommons.org/ns#"
   xmlns:rdf="http://www.w3.org/1999/02/22-rdf-syntax-ns#"
   xmlns:svg="http://www.w3.org/2000/svg"
   xmlns="http://www.w3.org/2000/svg"
   xmlns:sodipodi="http://sodipodi.sourceforge.net/DTD/sodipodi-0.dtd"
   xmlns:inkscape="http://www.inkscape.org/namespaces/inkscape"
   viewBox="0 0 226.66133 290.09958"
   height="290.09958"
   width="226.66133"
   xml:space="preserve"
   id="svg2"
   version="1.1"
   inkscape:version="0.91 r13725"
   sodipodi:docname="logo_blue.svg"><sodipodi:namedview
     pagecolor="#ffffff"
     bordercolor="#666666"
     borderopacity="1"
     objecttolerance="10"
     gridtolerance="10"
     guidetolerance="10"
     inkscape:pageopacity="0"
     inkscape:pageshadow="2"
     inkscape:window-width="1301"
     inkscape:window-height="744"
     id="namedview85"
     showgrid="false"
     inkscape:zoom="1.0012632"
     inkscape:cx="138.79154"
     inkscape:cy="48.248348"
     inkscape:window-x="65"
     inkscape:window-y="24"
     inkscape:window-maximized="1"
     inkscape:current-layer="g10"
     fit-margin-top="0"
     fit-margin-left="0"
     fit-margin-right="0"
     fit-margin-bottom="0" /><metadata
     id="metadata8"><rdf:RDF><cc:Work
         rdf:about=""><dc:format>image/svg+xml</dc:format><dc:type
           rdf:resource="http://purl.org/dc/dcmitype/StillImage" /><dc:title></dc:title></cc:Work></rdf:RDF></metadata><defs
     id="defs6"><clipPath
       id="clipPath18"
       clipPathUnits="userSpaceOnUse"><path
         id="path16"
         d="m 0,250 220.906,0 0,-250 L 0,0 Z"
         inkscape:connector-curvature="0" /></clipPath></defs><g
     transform="matrix(1.3333333,0,0,-1.3333333,-33.138666,314.79293)"
     id="g10"><g
       id="g5192"><g
         style="fill:#2c3e50;fill-opacity:1"
         id="g20"
         transform="translate(114.3105,83.6387)"><path
           inkscape:connector-curvature="0"
           d="m 0,0 c 0,0 9.103,3.833 12.696,7.186 3.592,3.353 14.132,26.348 10.299,48.865 -3.832,22.516 -17.246,51.5 -28.024,63.717 0,0 49.104,-51.261 31.379,-96.054 0,0 15.569,15.331 0.239,51.261 -7.215,16.909 -19.414,31.299 -26.165,48.299 -3.661,9.218 -4.585,19.344 -3.838,29.182 C -3.741,133.123 6.823,118.175 18.566,103.758 28.669,91.353 37.476,77.899 40.456,61.884 42.314,51.9 41.19,40.595 37.367,31.14 32.817,19.881 22.277,4.312 0,0"
           style="fill:#2c3e50;fill-opacity:1;fill-rule:nonzero;stroke:none"
           id="path22" /></g><g
         style="fill:#2c3e50;fill-opacity:1"
         id="g24"
         transform="translate(129.1621,110.9453)"><path
           inkscape:connector-curvature="0"
           d="m 0,0 4.791,3.833 c 0,0 8.623,44.074 -28.265,85.753 0,0 29.702,-40.721 23.474,-89.586"
           style="fill:#2c3e50;fill-opacity:1;fill-rule:nonzero;stroke:none"
           id="path26" /></g><g
         style="fill:#2c3e50;fill-opacity:1"
         id="g28"
         transform="translate(112.1416,121.7246)"><path
           inkscape:connector-curvature="0"
           d="m 0,0 c 0,0 -2.382,-18.205 -4.059,-19.881 0,0 -2.9,13.413 4.059,19.881 M -10.525,74.975 C 19.896,28.026 5.044,-23.714 4.325,-26.109 3.606,-28.505 0,-29.463 0,-29.463 16.754,37.607 -14.838,72.1 -14.838,72.1 3.847,38.326 0.732,8.384 -0.227,4.791 -1.184,1.198 -11.244,-7.905 -11.724,-18.205 c -0.478,-10.3 5.271,-13.893 5.271,-13.893 -0.24,-1.437 -4.072,-4.551 -4.072,-4.551 12.456,-1.916 21.079,5.988 21.079,5.988 C 27.32,28.505 -10.525,74.975 -10.525,74.975"
           style="fill:#2c3e50;fill-opacity:1;fill-rule:nonzero;stroke:none"
           id="path30" /></g><g
         style="fill:#2c3e50;fill-opacity:1"
         id="g32"
         transform="translate(105.6875,131.7607)"><path
           inkscape:connector-curvature="0"
           d="m 0,0 c 0,0 2.981,4.097 4.125,5.534 0,0 -0.292,35.212 -16.341,52.937 0,0 13.654,-19.93 12.216,-58.471"
           style="fill:#2c3e50;fill-opacity:1;fill-rule:nonzero;stroke:none"
           id="path34" /></g><g
         style="fill:#2c3e50;fill-opacity:1"
         id="g36"
         transform="translate(93.4717,86.9922)"><path
           inkscape:connector-curvature="0"
           d="m 0,0 c 0,0 -12.456,6.707 -13.414,9.342 l 0,11.498 c 0,0 2.875,-5.031 4.791,-5.989 0,0 9.821,27.307 6.707,51.261 L 0,70.184 c 0,0 7.186,-24.913 -4.551,-59.166 l 1.916,-2.156 c 0,0 17.965,38.087 -1.198,89.826 0,0 26.827,-43.355 3.833,-98.688"
           style="fill:#2c3e50;fill-opacity:1;fill-rule:nonzero;stroke:none"
           id="path38" /></g><g
         style="fill:#2c3e50;fill-opacity:1"
         id="g40"
         transform="translate(77.9014,98.25)"><path
           inkscape:connector-curvature="0"
           d="m 0,0 c 0,0 -6.707,6.228 -6.707,7.904 0,0 7.004,40.161 31.591,63.957 C 24.884,71.861 0.479,39.045 0,0"
           style="fill:#2c3e50;fill-opacity:1;fill-rule:nonzero;stroke:none"
           id="path42" /></g><g
         style="fill:#2c3e50;fill-opacity:1"
         id="g44"
         transform="translate(69.9971,110.9453)"><path
           inkscape:connector-curvature="0"
           d="m 0,0 c 0,0 -7.426,13.893 -5.988,32.098 1.437,18.205 24.671,48.147 43.475,65.393 0,0 -29.999,-35.2 -36.289,-58.446 0,0 17.597,31.173 32.631,43.148 0,0 -24.008,-32.849 -32.631,-56.802 0,0 20.354,35.512 33.868,45.704 C 35.066,71.095 7.665,33.775 0,0"
           style="fill:#2c3e50;fill-opacity:1;fill-rule:nonzero;stroke:none"
           id="path46" /></g><g
         style="fill:#2c3e50;fill-opacity:1"
         id="g48"
         transform="translate(137.5459,90.4648)"><path
           inkscape:connector-curvature="0"
           d="m 0,0 c -0.539,-0.539 -1.557,0.479 -1.078,1.198 0.479,0.718 4.911,2.635 4.911,2.635 z m -7.306,-5.688 c 0.838,2.095 5.509,5.808 5.39,4.011 -0.12,-1.796 -5.39,-4.011 -5.39,-4.011 m 24.672,27.007 c 0,0 -7.922,-12.318 -11.378,-13.534 C 2.533,6.569 -8.384,-4.751 -8.384,-4.751 l 0,1.916 c 0,0 -0.691,-0.957 -2.182,-1.916 l 0,-2.714 -2.928,-1.277 0,-3.034 c 0,0 10.061,5.588 14.053,9.581 3.992,3.992 5.749,7.186 7.186,7.666 L 6.9,6.42 c 0,0 9.628,5.259 10.466,14.899"
           style="fill:#2c3e50;fill-opacity:1;fill-rule:nonzero;stroke:none"
           id="path50" /></g><g
         style="fill:#2c3e50;fill-opacity:1"
         id="g52"
         transform="translate(120.2578,83.04)"><path
           inkscape:connector-curvature="0"
           d="M 0,0 C 0,0 2.916,1.316 3.275,1.736 L 0.88,-11.14 c 0,0 -10.779,0.241 -10.779,-12.814 0,0 -2.516,14.013 8.144,14.971 0.838,0 2.323,5.854 1.755,8.983"
           style="fill:#2c3e50;fill-opacity:1;fill-rule:nonzero;stroke:none"
           id="path54" /></g><g
         style="fill:#2c3e50;fill-opacity:1"
         id="g56"
         transform="translate(107.4834,59.6846)"><path
           inkscape:connector-curvature="0"
           d="m 0,0 -0.598,14.731 9.931,0.958 c 0,0 1.447,0.839 1.566,2.157 0.121,1.317 1.198,5.149 1.198,5.149 l -2.764,-0.838 0,-3.833 -1.787,0 0.12,3.593 -1.917,0 0,-3.832 -2.395,0 0.24,3.474 -1.797,-0.121 -0.718,-3.592 -1.677,0 -0.598,3.832 -2.636,-0.119 0,-2.556 c 0,0 -1.862,-0.998 -2.01,0 -0.077,0.532 0.202,1.998 -0.105,3.114 -0.208,0.753 -1.245,0.655 -2.197,0.878 0,0 1.318,-6.227 1.079,-6.826 -0.24,-0.599 4.072,0.479 4.191,-2.037 0.12,-2.514 -0.119,-5.509 -0.119,-5.509 0,0 -12.762,5.271 -18.837,10.899 0,0 9.375,-8.503 14.885,-10.779 C -1.436,6.468 -0.839,4.313 0,0"
           style="fill:#2c3e50;fill-opacity:1;fill-rule:nonzero;stroke:none"
           id="path58" /></g><g
         style="fill:#2c3e50;fill-opacity:1"
         id="g60"
         transform="translate(95.4678,83.958)"><path
           inkscape:connector-curvature="0"
           d="m 0,0 2.635,-1.278 1.916,-10.749 c 0,0 -14.851,7.077 -21.398,16.258 0,0 10.539,-9.82 18.683,-12.774 C 1.836,-8.543 0,-3.435 0,0"
           style="fill:#2c3e50;fill-opacity:1;fill-rule:nonzero;stroke:none"
           id="path62" /></g><g
         style="fill:#2c3e50;fill-opacity:1"
         id="g64"
         transform="translate(91.8213,85.6436)"><path
           inkscape:connector-curvature="0"
           d="m 0,0 c 0,0 1.89,-1.525 2.769,-1.605 0,0 0.318,-5.351 0.718,-5.749 l -2.634,1.276 c 0,0 -1.196,4.095 -0.853,6.078"
           style="fill:#2c3e50;fill-opacity:1;fill-rule:nonzero;stroke:none"
           id="path66" /></g><g
         style="fill:#2c3e50;fill-opacity:1"
         id="g68"
         transform="translate(91.7598,80.0605)"><path
           inkscape:connector-curvature="0"
           d="m 0,0 c 0,0 -1.242,5.255 -1.163,6.293 0,0 -2.395,1.597 -2.555,2.156 l 0,-3.733 -1.677,1.816 0,2.672 -2.475,1.959 0,-3.034 -1.836,1.436 0,2.681 c 0,0 -3.273,2.75 -3.433,3.389 l 0,-2.715 c 0,0 -11.258,13.493 -13.734,17.965 0,0 5.44,-16.019 26.873,-30.885"
           style="fill:#2c3e50;fill-opacity:1;fill-rule:nonzero;stroke:none"
           id="path70" /></g><g
         style="fill:#2c3e50;fill-opacity:1"
         id="g72"
         transform="translate(132.4326,110.9453)"><path
           inkscape:connector-curvature="0"
           d="m 0,0 c 0,0 -5.599,-5.987 -5.452,-8.264 0.386,-1.676 2.724,0 2.724,0 0,0 -2.516,-3.592 -2.727,-4.432 -0.212,-0.838 4.056,2.756 5.455,7.547 0,0 -1.952,-0.721 -2.731,-1.26 C -3.51,-6.946 -2.837,-3.713 0,0"
           style="fill:#2c3e50;fill-opacity:1;fill-rule:nonzero;stroke:none"
           id="path74" /></g><g
         style="fill:#2c3e50;fill-opacity:1"
         id="g76"
         transform="translate(109.8125,133.5815)"><path
           inkscape:connector-curvature="0"
           d="m 0,0 c 0,0 -5.599,-5.988 -5.452,-8.264 0.386,-1.677 2.724,0 2.724,0 0,0 -2.516,-3.593 -2.727,-4.432 -0.212,-0.838 4.056,2.755 5.455,7.546 0,0 -1.952,-0.721 -2.731,-1.259 C -3.51,-6.947 -2.837,-3.713 0,0"
           style="fill:#2c3e50;fill-opacity:1;fill-rule:nonzero;stroke:none"
           id="path78" /></g><g
         style="fill:#2c3e50;fill-opacity:1"
         id="g80"
         transform="translate(83.8857,24.3936)"><path
           inkscape:connector-curvature="0"
           d="m 0,0 c -0.086,-0.035 -0.144,-0.102 -0.176,-0.199 -0.031,-0.096 -0.047,-0.25 -0.047,-0.461 l 0,-4.197 c 0,-0.213 0.016,-0.368 0.047,-0.463 0.032,-0.098 0.092,-0.162 0.179,-0.198 0.087,-0.037 0.224,-0.058 0.41,-0.068 l 0,-0.168 c -0.313,0.016 -0.757,0.025 -1.33,0.025 -0.603,0 -1.048,-0.009 -1.334,-0.025 l 0,0.168 c 0.203,0.01 0.352,0.031 0.444,0.068 0.092,0.036 0.156,0.1 0.191,0.198 0.033,0.095 0.051,0.25 0.051,0.463 l 0,4.423 -2.041,-5.328 -0.136,0 -2.284,5.449 0,-4.054 c 0,-0.332 0.016,-0.576 0.053,-0.733 0.035,-0.156 0.11,-0.269 0.22,-0.339 0.112,-0.073 0.294,-0.12 0.549,-0.147 l 0,-0.168 c -0.219,0.016 -0.523,0.025 -0.913,0.025 -0.312,0 -0.557,-0.009 -0.736,-0.025 l 0,0.168 c 0.184,0.027 0.321,0.074 0.407,0.143 0.087,0.07 0.145,0.179 0.177,0.322 0.032,0.146 0.048,0.363 0.048,0.652 l 0,3.809 c 0,0.211 -0.016,0.365 -0.048,0.461 -0.032,0.097 -0.089,0.164 -0.175,0.199 -0.085,0.037 -0.222,0.059 -0.409,0.066 l 0,0.17 c 0.179,-0.017 0.424,-0.025 0.736,-0.025 0.517,0 0.963,0.008 1.334,0.025 l 1.706,-4.111 1.561,4.086 0.599,0 c 0.573,0 1.017,0.008 1.33,0.025 l 0,-0.17 C 0.224,0.059 0.087,0.037 0,0"
           style="fill:#2c3e50;fill-opacity:1;fill-rule:nonzero;stroke:none"
           id="path82" /></g><g
         style="fill:#2c3e50;fill-opacity:1"
         id="g84"
         transform="translate(88.8252,23.3623)"><path
           inkscape:connector-curvature="0"
           d="m 0,0 -0.876,-2.285 1.715,0 z m 3.206,-4.418 c 0.093,-0.084 0.187,-0.129 0.281,-0.137 l 0,-0.168 c -0.34,0.016 -0.768,0.026 -1.285,0.026 -0.578,0 -1.006,-0.01 -1.285,-0.026 l 0,0.168 c 0.212,0.01 0.365,0.035 0.457,0.08 0.092,0.043 0.138,0.121 0.138,0.231 0,0.086 -0.034,0.219 -0.103,0.402 l -0.51,1.387 -1.841,0 -0.223,-0.582 c -0.154,-0.397 -0.231,-0.711 -0.231,-0.943 0,-0.209 0.062,-0.354 0.186,-0.436 0.124,-0.084 0.311,-0.129 0.562,-0.139 l 0,-0.168 c -0.381,0.016 -0.73,0.026 -1.049,0.026 -0.26,0 -0.474,-0.01 -0.645,-0.026 l 0,0.168 c 0.28,0.049 0.523,0.344 0.727,0.889 l 1.928,4.951 c 0.092,-0.01 0.19,-0.014 0.293,-0.014 0.112,0 0.208,0.004 0.293,0.014 l 2.055,-5.299 c 0.074,-0.185 0.158,-0.322 0.252,-0.404"
           style="fill:#2c3e50;fill-opacity:1;fill-rule:nonzero;stroke:none"
           id="path86" /></g><g
         style="fill:#2c3e50;fill-opacity:1"
         id="g88"
         transform="translate(99.5498,24.3174)"><path
           inkscape:connector-curvature="0"
           d="M 0,0 C -0.087,-0.07 -0.146,-0.178 -0.178,-0.322 -0.21,-0.467 -0.225,-0.684 -0.225,-0.973 l 0,-2.242 c 0,-0.808 -0.116,-1.406 -0.348,-1.793 -0.153,-0.252 -0.374,-0.445 -0.66,-0.584 -0.287,-0.137 -0.639,-0.205 -1.058,-0.205 -0.65,0 -1.158,0.141 -1.524,0.424 -0.179,0.144 -0.316,0.31 -0.412,0.5 -0.095,0.191 -0.159,0.414 -0.194,0.668 -0.034,0.254 -0.051,0.576 -0.051,0.965 l 0,2.656 c 0,0.211 -0.016,0.367 -0.047,0.463 -0.032,0.096 -0.091,0.162 -0.178,0.197 -0.087,0.037 -0.224,0.059 -0.412,0.067 l 0,0.168 c 0.29,-0.014 0.729,-0.024 1.319,-0.024 0.583,0 1.032,0.01 1.346,0.024 l 0,-0.168 C -2.648,0.135 -2.796,0.113 -2.887,0.076 -2.98,0.041 -3.044,-0.025 -3.078,-0.121 -3.112,-0.217 -3.13,-0.373 -3.13,-0.584 l 0,-3.189 c 0,-0.397 0.036,-0.721 0.108,-0.969 0.071,-0.25 0.192,-0.438 0.362,-0.567 0.169,-0.127 0.402,-0.191 0.699,-0.191 0.562,0 0.959,0.189 1.192,0.57 0.233,0.381 0.35,0.92 0.35,1.619 l 0,2.235 c 0,0.328 -0.02,0.572 -0.06,0.73 -0.04,0.157 -0.117,0.272 -0.23,0.344 -0.113,0.072 -0.29,0.121 -0.532,0.145 l 0,0.168 c 0.211,-0.014 0.516,-0.024 0.912,-0.024 0.314,0 0.559,0.01 0.736,0.024 l 0,-0.168 C 0.222,0.119 0.087,0.07 0,0"
           style="fill:#2c3e50;fill-opacity:1;fill-rule:nonzero;stroke:none"
           id="path90" /></g><g
         style="fill:#2c3e50;fill-opacity:1"
         id="g92"
         transform="translate(105.5137,21.833)"><path
           inkscape:connector-curvature="0"
           d="m 0,0 c 0.178,0.121 0.3,0.283 0.367,0.488 0.068,0.203 0.102,0.45 0.102,0.735 0,0.463 -0.082,0.812 -0.246,1.048 C 0.059,2.51 -0.209,2.627 -0.58,2.627 -0.732,2.627 -0.845,2.607 -0.917,2.566 -0.99,2.527 -1.04,2.457 -1.066,2.357 -1.092,2.256 -1.105,2.104 -1.105,1.9 l 0,-2.082 0.363,0 C -0.425,-0.182 -0.179,-0.121 0,0 M 2.155,-3.197 C 1.98,-3.275 1.771,-3.313 1.525,-3.313 c -0.324,0 -0.582,0.069 -0.771,0.206 -0.191,0.138 -0.315,0.375 -0.372,0.711 l -0.153,0.843 c -0.049,0.272 -0.101,0.492 -0.156,0.658 -0.053,0.166 -0.131,0.299 -0.23,0.397 -0.101,0.098 -0.234,0.146 -0.4,0.146 l -0.548,0 0,-1.945 c 0,-0.213 0.015,-0.367 0.044,-0.463 0.032,-0.095 0.088,-0.164 0.173,-0.199 0.086,-0.035 0.225,-0.057 0.414,-0.064 l 0,-0.17 c -0.299,0.015 -0.725,0.023 -1.276,0.023 -0.604,0 -1.047,-0.008 -1.334,-0.023 l 0,0.17 c 0.187,0.007 0.322,0.029 0.409,0.064 0.085,0.035 0.144,0.104 0.176,0.199 0.03,0.096 0.047,0.25 0.047,0.463 l 0,4.197 c 0,0.211 -0.017,0.366 -0.047,0.463 -0.032,0.096 -0.091,0.162 -0.176,0.198 -0.087,0.037 -0.222,0.058 -0.409,0.066 l 0,0.17 c 0.287,-0.016 0.715,-0.026 1.285,-0.026 0.225,0 0.476,0.004 0.752,0.01 0.275,0.004 0.467,0.006 0.573,0.006 0.777,0 1.363,-0.127 1.757,-0.381 C 1.677,2.15 1.873,1.789 1.873,1.318 1.873,1.066 1.813,0.828 1.694,0.604 1.577,0.377 1.376,0.182 1.093,0.014 0.809,-0.152 0.434,-0.264 -0.031,-0.318 l 0.009,0 c 0.34,-0.032 0.621,-0.088 0.839,-0.174 0.22,-0.084 0.391,-0.203 0.515,-0.358 0.124,-0.152 0.211,-0.347 0.261,-0.584 l 0.194,-0.871 c 0.046,-0.228 0.1,-0.386 0.158,-0.476 0.06,-0.088 0.143,-0.133 0.249,-0.133 0.067,0.004 0.124,0.021 0.175,0.051 0.05,0.031 0.105,0.078 0.165,0.144 L 2.649,-2.822 C 2.496,-2.996 2.332,-3.121 2.155,-3.197"
           style="fill:#2c3e50;fill-opacity:1;fill-rule:nonzero;stroke:none"
           id="path94" /></g><g
         style="fill:#2c3e50;fill-opacity:1"
         id="g96"
         transform="translate(112.5117,24.3936)"><path
           inkscape:connector-curvature="0"
           d="M 0,0 C -0.085,-0.035 -0.144,-0.102 -0.175,-0.199 -0.204,-0.295 -0.22,-0.449 -0.22,-0.66 l 0,-4.197 c 0,-0.213 0.016,-0.368 0.045,-0.463 0.031,-0.098 0.09,-0.162 0.175,-0.198 0.086,-0.037 0.223,-0.058 0.413,-0.068 l 0,-0.168 c -0.301,0.016 -0.726,0.025 -1.276,0.025 -0.604,0 -1.048,-0.009 -1.335,-0.025 l 0,0.168 c 0.187,0.01 0.324,0.031 0.409,0.068 0.085,0.036 0.143,0.1 0.176,0.198 0.032,0.095 0.047,0.25 0.047,0.463 l 0,4.197 c 0,0.211 -0.015,0.365 -0.047,0.461 -0.033,0.097 -0.091,0.164 -0.176,0.199 -0.085,0.037 -0.222,0.059 -0.409,0.066 l 0,0.17 c 0.284,-0.017 0.728,-0.025 1.335,-0.025 0.55,0 0.975,0.008 1.276,0.025 l 0,-0.17 C 0.223,0.059 0.086,0.037 0,0"
           style="fill:#2c3e50;fill-opacity:1;fill-rule:nonzero;stroke:none"
           id="path98" /></g><g
         style="fill:#2c3e50;fill-opacity:1"
         id="g100"
         transform="translate(115.5088,23.1924)"><path
           inkscape:connector-curvature="0"
           d="M 0,0 C 0,0.385 -0.021,0.865 -0.063,1.438 0.452,1.422 1.325,1.412 2.553,1.412 3.781,1.412 4.65,1.422 5.16,1.438 5.118,0.865 5.097,0.385 5.097,0 c 0,-0.242 0.009,-0.457 0.029,-0.645 l -0.193,0 C 4.839,-0.174 4.724,0.199 4.59,0.473 4.455,0.746 4.293,0.943 4.104,1.064 3.916,1.184 3.686,1.242 3.416,1.242 l -0.194,0 0,-4.832 c 0,-0.234 0.024,-0.406 0.073,-0.512 0.047,-0.109 0.133,-0.181 0.256,-0.22 0.122,-0.037 0.314,-0.059 0.576,-0.061 l 0,-0.17 c -0.711,0.016 -1.246,0.024 -1.607,0.024 -0.355,0 -0.873,-0.008 -1.549,-0.024 l 0,0.17 c 0.263,0.002 0.457,0.024 0.58,0.061 0.123,0.039 0.208,0.111 0.254,0.22 0.047,0.106 0.071,0.278 0.071,0.512 l 0,4.832 -0.187,0 C 1.417,1.242 1.186,1.184 0.998,1.066 0.809,0.947 0.646,0.75 0.513,0.477 0.377,0.203 0.262,-0.172 0.165,-0.645 l -0.194,0 C -0.01,-0.457 0,-0.242 0,0"
           style="fill:#2c3e50;fill-opacity:1;fill-rule:nonzero;stroke:none"
           id="path102" /></g><g
         style="fill:#2c3e50;fill-opacity:1"
         id="g104"
         transform="translate(125.4053,24.3936)"><path
           inkscape:connector-curvature="0"
           d="M 0,0 C -0.085,-0.035 -0.144,-0.102 -0.175,-0.199 -0.204,-0.295 -0.22,-0.449 -0.22,-0.66 l 0,-4.197 c 0,-0.213 0.016,-0.368 0.045,-0.463 0.031,-0.098 0.09,-0.162 0.175,-0.198 0.085,-0.037 0.223,-0.058 0.412,-0.068 l 0,-0.168 c -0.3,0.016 -0.725,0.025 -1.275,0.025 -0.604,0 -1.048,-0.009 -1.335,-0.025 l 0,0.168 c 0.187,0.01 0.324,0.031 0.409,0.068 0.085,0.036 0.143,0.1 0.176,0.198 0.032,0.095 0.047,0.25 0.047,0.463 l 0,4.197 c 0,0.211 -0.015,0.365 -0.047,0.461 -0.033,0.097 -0.091,0.164 -0.176,0.199 -0.085,0.037 -0.222,0.059 -0.409,0.066 l 0,0.17 c 0.284,-0.017 0.728,-0.025 1.335,-0.025 0.55,0 0.975,0.008 1.275,0.025 l 0,-0.17 C 0.223,0.059 0.085,0.037 0,0"
           style="fill:#2c3e50;fill-opacity:1;fill-rule:nonzero;stroke:none"
           id="path106" /></g><g
         style="fill:#2c3e50;fill-opacity:1"
         id="g108"
         transform="translate(133.3994,24.3174)"><path
           inkscape:connector-curvature="0"
           d="m 0,0 c -0.088,-0.07 -0.146,-0.178 -0.179,-0.322 -0.032,-0.145 -0.047,-0.362 -0.047,-0.651 l 0,-2.242 c 0,-0.808 -0.116,-1.406 -0.347,-1.793 -0.154,-0.252 -0.374,-0.445 -0.66,-0.584 -0.288,-0.137 -0.639,-0.205 -1.058,-0.205 -0.65,0 -1.158,0.141 -1.524,0.424 -0.179,0.144 -0.317,0.31 -0.413,0.5 -0.094,0.191 -0.159,0.414 -0.194,0.668 -0.033,0.254 -0.051,0.576 -0.051,0.965 l 0,2.656 c 0,0.211 -0.015,0.367 -0.048,0.463 -0.031,0.096 -0.089,0.162 -0.176,0.197 -0.087,0.037 -0.225,0.059 -0.412,0.067 l 0,0.168 c 0.29,-0.014 0.728,-0.024 1.319,-0.024 0.583,0 1.031,0.01 1.346,0.024 l 0,-0.168 C -2.648,0.135 -2.797,0.113 -2.888,0.076 -2.98,0.041 -3.045,-0.025 -3.078,-0.121 -3.112,-0.217 -3.131,-0.373 -3.131,-0.584 l 0,-3.189 c 0,-0.397 0.036,-0.721 0.109,-0.969 0.071,-0.25 0.192,-0.438 0.362,-0.567 0.169,-0.127 0.401,-0.191 0.698,-0.191 0.563,0 0.959,0.189 1.192,0.57 0.234,0.381 0.35,0.92 0.35,1.619 l 0,2.235 c 0,0.328 -0.019,0.572 -0.059,0.73 -0.041,0.157 -0.118,0.272 -0.23,0.344 -0.113,0.072 -0.29,0.121 -0.532,0.145 l 0,0.168 c 0.211,-0.014 0.515,-0.024 0.912,-0.024 0.313,0 0.558,0.01 0.735,0.024 l 0,-0.168 C 0.222,0.119 0.087,0.07 0,0"
           style="fill:#2c3e50;fill-opacity:1;fill-rule:nonzero;stroke:none"
           id="path110" /></g><g
         style="fill:#2c3e50;fill-opacity:1"
         id="g112"
         transform="translate(137.1025,19.3311)"><path
           inkscape:connector-curvature="0"
           d="m 0,0 c 0.244,-0.393 0.617,-0.588 1.121,-0.588 0.199,0 0.377,0.035 0.535,0.106 0.159,0.07 0.284,0.175 0.376,0.32 0.092,0.142 0.139,0.316 0.139,0.519 0,0.221 -0.052,0.418 -0.154,0.594 C 1.913,1.125 1.774,1.285 1.6,1.43 1.424,1.574 1.19,1.74 0.898,1.932 0.558,2.15 0.286,2.344 0.087,2.506 c -0.2,0.162 -0.364,0.355 -0.496,0.578 -0.131,0.223 -0.195,0.482 -0.195,0.777 0,0.342 0.086,0.627 0.259,0.862 0.173,0.232 0.404,0.404 0.691,0.517 0.285,0.114 0.601,0.17 0.945,0.17 0.203,0 0.38,-0.015 0.531,-0.047 C 1.973,5.334 2.098,5.297 2.198,5.252 2.298,5.205 2.407,5.148 2.526,5.08 2.661,5 2.756,4.961 2.813,4.961 c 0.051,0 0.09,0.029 0.119,0.088 0.026,0.058 0.049,0.154 0.065,0.283 l 0.194,0 C 3.164,4.955 3.15,4.311 3.15,3.402 l -0.194,0 C 2.937,3.709 2.868,4 2.751,4.273 2.634,4.549 2.471,4.773 2.26,4.945 2.049,5.117 1.802,5.203 1.519,5.203 1.339,5.203 1.18,5.17 1.037,5.1 0.896,5.031 0.785,4.932 0.706,4.801 0.628,4.67 0.589,4.518 0.589,4.344 0.589,4.063 0.673,3.834 0.841,3.654 1.008,3.475 1.229,3.295 1.497,3.111 1.768,2.928 1.949,2.805 2.043,2.74 2.373,2.52 2.635,2.33 2.827,2.168 3.021,2.004 3.178,1.814 3.299,1.598 3.42,1.379 3.48,1.127 3.48,0.842 3.48,0.48 3.387,0.176 3.199,-0.072 3.012,-0.32 2.76,-0.504 2.443,-0.627 2.127,-0.75 1.773,-0.811 1.382,-0.811 c -0.317,0 -0.579,0.028 -0.788,0.084 -0.207,0.057 -0.4,0.133 -0.575,0.229 -0.122,0.08 -0.217,0.121 -0.285,0.121 -0.052,0 -0.092,-0.029 -0.12,-0.09 -0.028,-0.058 -0.05,-0.152 -0.066,-0.283 l -0.194,0 c 0.021,0.354 0.032,1.113 0.032,2.285 l 0.195,0 C -0.384,0.904 -0.244,0.393 0,0"
           style="fill:#2c3e50;fill-opacity:1;fill-rule:nonzero;stroke:none"
           id="path114" /></g><g
         style="fill:#2c3e50;fill-opacity:1"
         id="g116"
         transform="translate(45.3037,51.3369)"><path
           inkscape:connector-curvature="0"
           d="M 0,0 C -0.332,-0.139 -0.558,-0.397 -0.674,-0.771 -0.792,-1.146 -0.853,-1.746 -0.853,-2.57 l 0,-12.046 0,-1.96 c 0,-1.467 -0.033,-2.741 -0.103,-3.822 -0.07,-1.082 -0.222,-2.013 -0.457,-2.795 -0.3,-1.028 -0.828,-1.946 -1.583,-2.754 -0.755,-0.809 -1.708,-1.446 -2.858,-1.912 -1.152,-0.465 -2.445,-0.698 -3.88,-0.698 -1.391,0 -2.499,0.207 -3.325,0.627 -1.082,0.535 -1.622,1.321 -1.622,2.36 0,0.674 0.242,1.218 0.723,1.631 0.481,0.412 1.119,0.617 1.912,0.617 0.771,0 1.381,-0.188 1.831,-0.571 0.449,-0.378 0.674,-0.918 0.674,-1.613 0,-0.492 -0.145,-0.932 -0.435,-1.316 -0.289,-0.385 -0.706,-0.67 -1.252,-0.852 0.214,-0.15 0.611,-0.224 1.189,-0.224 0.804,0 1.494,0.212 2.072,0.642 0.578,0.428 0.995,1.002 1.253,1.719 0.193,0.568 0.335,1.166 0.426,1.799 0.091,0.631 0.146,1.38 0.169,2.247 0.02,0.868 0.032,2.163 0.032,3.887 l 0,15.034 c 0,0.824 -0.062,1.424 -0.185,1.799 C -6.396,-0.397 -6.625,-0.139 -6.963,0 -7.3,0.139 -7.833,0.225 -8.562,0.257 l 0,0.659 c 1.093,-0.064 2.764,-0.097 5.012,-0.097 2.217,0 3.935,0.033 5.155,0.097 l 0,-0.659 C 0.867,0.225 0.332,0.139 0,0"
           style="fill:#2c3e50;fill-opacity:1;fill-rule:nonzero;stroke:none"
           id="path118" /></g><g
         style="fill:#2c3e50;fill-opacity:1"
         id="g120"
         transform="translate(53.6992,38.2061)"><path
           inkscape:connector-curvature="0"
           d="M 0,0 C -0.316,-0.251 -0.77,-0.559 -1.357,-0.923 -2.055,-1.404 -2.6,-1.948 -2.995,-2.554 -3.393,-3.158 -3.591,-3.91 -3.591,-4.81 c 0,-0.857 0.188,-1.497 0.564,-1.919 0.374,-0.423 0.867,-0.634 1.476,-0.634 0.867,0 1.613,0.448 2.234,1.348 l 0,6.745 C 0.543,0.495 0.315,0.251 0,0 M 0.031,6.786 C -0.402,7.312 -1.079,7.573 -2,7.573 -2.429,7.573 -2.856,7.507 -3.284,7.372 -3.714,7.238 -4.066,7.037 -4.346,6.771 -3.734,6.566 -3.259,6.248 -2.915,5.814 -2.572,5.381 -2.401,4.838 -2.401,4.185 -2.401,3.734 -2.512,3.33 -2.731,2.972 -2.95,2.613 -3.265,2.329 -3.671,2.12 -4.077,1.911 -4.543,1.808 -5.067,1.808 c -0.707,0 -1.273,0.241 -1.696,0.722 -0.423,0.483 -0.634,1.086 -0.634,1.816 0,1.134 0.611,2.054 1.832,2.761 1.337,0.74 3.007,1.109 5.01,1.109 2.248,0 3.85,-0.492 4.803,-1.479 C 4.709,6.277 5.019,5.704 5.18,5.021 5.341,4.333 5.421,3.376 5.421,2.145 l 0,-8.947 c 0,-0.536 0.051,-0.913 0.151,-1.133 0.103,-0.218 0.282,-0.328 0.538,-0.328 0.355,0 0.76,0.187 1.222,0.562 L 7.669,-8.263 C 7.166,-8.682 6.619,-8.985 6.03,-9.179 5.441,-9.371 4.735,-9.469 3.91,-9.469 c -1.113,0 -1.917,0.247 -2.409,0.74 -0.492,0.493 -0.738,1.134 -0.738,1.927 -0.535,-0.888 -1.238,-1.554 -2.105,-2 -0.866,-0.443 -1.794,-0.667 -2.778,-0.667 -1.253,0 -2.257,0.33 -3.012,0.989 -0.755,0.659 -1.133,1.577 -1.133,2.754 0,1.147 0.375,2.093 1.125,2.843 0.749,0.749 1.911,1.414 3.486,1.991 0.171,0.066 0.727,0.277 1.67,0.635 0.943,0.36 1.623,0.726 2.04,1.101 0.418,0.375 0.627,0.787 0.627,1.236 l 0,2.555 c 0,0.91 -0.217,1.627 -0.652,2.151"
           style="fill:#2c3e50;fill-opacity:1;fill-rule:nonzero;stroke:none"
           id="path122" /></g><g
         style="fill:#2c3e50;fill-opacity:1"
         id="g124"
         transform="translate(66.5986,30.585)"><path
           inkscape:connector-curvature="0"
           d="m 0,0 c 0.134,-0.343 0.354,-0.584 0.659,-0.723 0.304,-0.138 0.719,-0.209 1.244,-0.209 l 0,-0.69 c -2.27,0.085 -3.737,0.129 -4.401,0.129 -0.76,0 -2.274,-0.044 -4.545,-0.129 l 0,0.69 c 0.524,0 0.938,0.071 1.237,0.209 0.299,0.139 0.519,0.38 0.659,0.723 0.138,0.343 0.209,0.819 0.209,1.43 l 0,18.759 c 0,1.018 -0.159,1.754 -0.475,2.209 -0.316,0.456 -0.858,0.683 -1.63,0.683 l 0,0.69 c 0.696,-0.064 1.375,-0.096 2.04,-0.096 1.927,0 3.527,0.155 4.802,0.467 l 0,-22.712 C -0.201,0.819 -0.134,0.343 0,0"
           style="fill:#2c3e50;fill-opacity:1;fill-rule:nonzero;stroke:none"
           id="path126" /></g><g
         style="fill:#2c3e50;fill-opacity:1"
         id="g128"
         transform="translate(70.2158,30.8584)"><path
           inkscape:connector-curvature="0"
           d="m 0,0 c 0.712,-1.071 1.721,-1.605 3.026,-1.605 0.644,0 1.193,0.194 1.648,0.585 0.455,0.391 0.682,0.977 0.682,1.759 0,0.61 -0.136,1.157 -0.41,1.638 C 4.674,2.858 4.327,3.286 3.91,3.662 3.493,4.036 2.866,4.55 2.031,5.204 1.014,6.028 0.251,6.676 -0.258,7.147 c -0.509,0.471 -0.944,1.03 -1.308,1.679 -0.365,0.647 -0.546,1.383 -0.546,2.208 0,0.943 0.257,1.756 0.77,2.441 0.515,0.685 1.205,1.205 2.072,1.559 0.868,0.353 1.81,0.53 2.828,0.53 0.835,0 1.6,-0.102 2.296,-0.306 0.697,-0.203 1.242,-0.439 1.638,-0.706 0.215,-0.15 0.406,-0.226 0.578,-0.226 0.408,0 0.664,0.403 0.772,1.205 l 0.722,0 C 9.479,14.428 9.436,12.501 9.436,9.749 l -0.723,0 c -0.192,1.435 -0.624,2.642 -1.293,3.622 -0.669,0.981 -1.642,1.47 -2.915,1.47 -0.653,0 -1.189,-0.188 -1.607,-0.563 C 2.48,13.903 2.272,13.39 2.272,12.737 2.272,11.998 2.519,11.36 3.012,10.825 3.504,10.29 4.098,9.776 4.795,9.283 5.489,8.791 5.999,8.421 6.32,8.175 7.22,7.5 7.935,6.911 8.464,6.409 8.993,5.905 9.425,5.335 9.757,4.698 10.089,4.062 10.255,3.33 10.255,2.505 10.255,1.542 9.974,0.69 9.411,-0.048 8.85,-0.787 8.092,-1.356 7.139,-1.759 6.186,-2.16 5.142,-2.361 4.007,-2.361 c -1.167,0 -2.185,0.23 -3.053,0.691 -0.652,0.331 -1.167,0.561 -1.54,0.691 -0.064,0.021 -0.118,0.031 -0.161,0.031 -0.354,0 -0.61,-0.391 -0.772,-1.172 l -0.722,0 c 0.086,1.253 0.129,3.442 0.129,6.569 l 0.721,0 C -1.176,2.554 -0.714,1.07 0,0"
           style="fill:#2c3e50;fill-opacity:1;fill-rule:nonzero;stroke:none"
           id="path130" /></g><g
         style="fill:#2c3e50;fill-opacity:1"
         id="g132"
         transform="translate(88.9287,38.2061)"><path
           inkscape:connector-curvature="0"
           d="M 0,0 C -0.315,-0.251 -0.769,-0.559 -1.356,-0.923 -2.054,-1.404 -2.599,-1.948 -2.995,-2.554 -3.392,-3.158 -3.59,-3.91 -3.59,-4.81 c 0,-0.857 0.188,-1.497 0.564,-1.919 0.374,-0.423 0.866,-0.634 1.476,-0.634 0.867,0 1.613,0.448 2.234,1.348 l 0,6.745 C 0.543,0.495 0.316,0.251 0,0 M 0.032,6.786 C -0.401,7.312 -1.079,7.573 -2,7.573 -2.428,7.573 -2.855,7.507 -3.284,7.372 -3.713,7.238 -4.065,7.037 -4.345,6.771 -3.733,6.566 -3.258,6.248 -2.915,5.814 -2.572,5.381 -2.4,4.838 -2.4,4.185 -2.4,3.734 -2.511,3.33 -2.73,2.972 -2.95,2.613 -3.264,2.329 -3.67,2.12 -4.077,1.911 -4.543,1.808 -5.066,1.808 c -0.707,0 -1.273,0.241 -1.696,0.722 -0.423,0.483 -0.634,1.086 -0.634,1.816 0,1.134 0.61,2.054 1.832,2.761 1.337,0.74 3.007,1.109 5.01,1.109 2.248,0 3.849,-0.492 4.802,-1.479 C 4.709,6.277 5.02,5.704 5.181,5.021 5.34,4.333 5.421,3.376 5.421,2.145 l 0,-8.947 c 0,-0.536 0.052,-0.913 0.152,-1.133 0.102,-0.218 0.281,-0.328 0.538,-0.328 0.354,0 0.76,0.187 1.221,0.562 L 7.669,-8.263 C 7.166,-8.682 6.62,-8.985 6.031,-9.179 c -0.589,-0.192 -1.295,-0.29 -2.12,-0.29 -1.114,0 -1.917,0.247 -2.41,0.74 -0.492,0.493 -0.737,1.134 -0.737,1.927 -0.535,-0.888 -1.238,-1.554 -2.105,-2 -0.867,-0.443 -1.794,-0.667 -2.779,-0.667 -1.253,0 -2.257,0.33 -3.011,0.989 -0.755,0.659 -1.133,1.577 -1.133,2.754 0,1.147 0.375,2.093 1.125,2.843 0.749,0.749 1.911,1.414 3.485,1.991 0.172,0.066 0.728,0.277 1.671,0.635 0.942,0.36 1.623,0.726 2.04,1.101 0.418,0.375 0.627,0.787 0.627,1.236 l 0,2.555 c 0,0.91 -0.218,1.627 -0.652,2.151"
           style="fill:#2c3e50;fill-opacity:1;fill-rule:nonzero;stroke:none"
           id="path134" /></g><g
         style="fill:#2c3e50;fill-opacity:1"
         id="g136"
         transform="translate(100.6934,31.6533)"><path
           inkscape:connector-curvature="0"
           d="m 0,0 c 0.948,-1.526 2.401,-2.289 4.36,-2.289 0.773,0 1.465,0.137 2.081,0.41 0.616,0.274 1.102,0.688 1.461,1.245 0.359,0.556 0.538,1.231 0.538,2.024 0,0.856 -0.201,1.624 -0.602,2.304 -0.4,0.68 -0.942,1.301 -1.621,1.863 -0.681,0.562 -1.588,1.214 -2.723,1.952 -1.329,0.856 -2.38,1.6 -3.156,2.232 -0.776,0.632 -1.42,1.382 -1.928,2.249 -0.509,0.867 -0.763,1.874 -0.763,3.019 0,1.328 0.337,2.445 1.012,3.349 0.674,0.905 1.57,1.578 2.683,2.017 1.113,0.438 2.339,0.658 3.678,0.658 0.793,0 1.479,-0.059 2.063,-0.177 0.584,-0.118 1.071,-0.265 1.462,-0.442 0.392,-0.176 0.816,-0.399 1.277,-0.666 0.526,-0.31 0.894,-0.466 1.109,-0.466 0.202,0 0.358,0.115 0.465,0.345 0.107,0.23 0.192,0.597 0.257,1.102 l 0.755,0 C 12.301,19.26 12.247,16.76 12.247,13.226 l -0.755,0 c -0.075,1.189 -0.34,2.319 -0.795,3.39 -0.455,1.072 -1.092,1.94 -1.911,2.61 -0.819,0.67 -1.78,1.003 -2.883,1.003 -0.697,0 -1.32,-0.133 -1.871,-0.401 C 3.48,19.561 3.053,19.172 2.746,18.663 2.441,18.155 2.289,17.563 2.289,16.889 c 0,-1.092 0.326,-1.987 0.981,-2.683 0.652,-0.696 1.503,-1.4 2.552,-2.112 1.049,-0.712 1.756,-1.191 2.121,-1.437 1.285,-0.857 2.302,-1.601 3.051,-2.232 0.75,-0.632 1.36,-1.372 1.831,-2.217 0.471,-0.846 0.707,-1.826 0.707,-2.938 0,-1.404 -0.364,-2.587 -1.093,-3.551 C 11.712,-1.245 10.731,-1.965 9.501,-2.442 8.27,-2.918 6.894,-3.156 5.373,-3.156 c -1.231,0 -2.252,0.111 -3.06,0.329 -0.808,0.219 -1.555,0.516 -2.241,0.891 -0.47,0.311 -0.841,0.467 -1.107,0.467 -0.203,0 -0.36,-0.115 -0.467,-0.345 -0.106,-0.231 -0.191,-0.598 -0.257,-1.101 l -0.755,0 c 0.086,1.37 0.129,4.331 0.129,8.882 l 0.755,0 C -1.49,3.515 -0.947,1.526 0,0"
           style="fill:#2c3e50;fill-opacity:1;fill-rule:nonzero;stroke:none"
           id="path138" /></g><g
         style="fill:#2c3e50;fill-opacity:1"
         id="g140"
         transform="translate(122.8125,38.2061)"><path
           inkscape:connector-curvature="0"
           d="M 0,0 C -0.316,-0.251 -0.77,-0.559 -1.357,-0.923 -2.055,-1.404 -2.6,-1.948 -2.995,-2.554 -3.393,-3.158 -3.59,-3.91 -3.59,-4.81 c 0,-0.857 0.187,-1.497 0.563,-1.919 0.374,-0.423 0.867,-0.634 1.477,-0.634 0.866,0 1.612,0.448 2.233,1.348 l 0,6.745 C 0.543,0.495 0.315,0.251 0,0 m 0.033,6.786 c -0.435,0.526 -1.112,0.787 -2.032,0.787 -0.43,0 -0.857,-0.066 -1.285,-0.201 C -3.713,7.238 -4.066,7.037 -4.346,6.771 -3.734,6.566 -3.258,6.248 -2.915,5.814 -2.572,5.381 -2.401,4.838 -2.401,4.185 -2.401,3.734 -2.512,3.33 -2.731,2.972 -2.95,2.613 -3.264,2.329 -3.67,2.12 -4.077,1.911 -4.543,1.808 -5.067,1.808 c -0.707,0 -1.272,0.241 -1.696,0.722 -0.423,0.483 -0.633,1.086 -0.633,1.816 0,1.134 0.61,2.054 1.831,2.761 1.337,0.74 3.007,1.109 5.01,1.109 2.249,0 3.85,-0.492 4.803,-1.479 C 4.709,6.277 5.02,5.704 5.18,5.021 5.341,4.333 5.421,3.376 5.421,2.145 l 0,-8.947 c 0,-0.536 0.051,-0.913 0.152,-1.133 0.102,-0.218 0.281,-0.328 0.537,-0.328 0.355,0 0.762,0.187 1.222,0.562 L 7.669,-8.263 C 7.166,-8.682 6.62,-8.985 6.03,-9.179 5.441,-9.371 4.735,-9.469 3.911,-9.469 c -1.114,0 -1.917,0.247 -2.409,0.74 -0.493,0.493 -0.739,1.134 -0.739,1.927 -0.535,-0.888 -1.238,-1.554 -2.104,-2 -0.867,-0.443 -1.794,-0.667 -2.779,-0.667 -1.253,0 -2.257,0.33 -3.011,0.989 -0.756,0.659 -1.133,1.577 -1.133,2.754 0,1.147 0.374,2.093 1.124,2.843 0.749,0.749 1.911,1.414 3.486,1.991 0.171,0.066 0.728,0.277 1.67,0.635 0.943,0.36 1.623,0.726 2.041,1.101 0.417,0.375 0.626,0.787 0.626,1.236 l 0,2.555 c 0,0.91 -0.217,1.627 -0.65,2.151"
           style="fill:#2c3e50;fill-opacity:1;fill-rule:nonzero;stroke:none"
           id="path142" /></g><g
         style="fill:#2c3e50;fill-opacity:1"
         id="g144"
         transform="translate(137.6865,30.585)"><path
           inkscape:connector-curvature="0"
           d="m 0,0 c 0.134,-0.343 0.353,-0.584 0.659,-0.723 0.304,-0.138 0.719,-0.209 1.243,-0.209 l 0,-0.69 c -2.269,0.085 -3.736,0.129 -4.4,0.129 -0.76,0 -2.275,-0.044 -4.545,-0.129 l 0,0.69 c 0.523,0 0.937,0.071 1.236,0.209 0.3,0.139 0.52,0.38 0.659,0.723 0.138,0.343 0.209,0.819 0.209,1.43 l 0,18.759 c 0,1.018 -0.159,1.754 -0.474,2.209 -0.316,0.456 -0.86,0.683 -1.63,0.683 l 0,0.69 c 0.694,-0.064 1.375,-0.096 2.04,-0.096 1.927,0 3.526,0.155 4.802,0.467 l 0,-22.712 C -0.201,0.819 -0.135,0.343 0,0"
           style="fill:#2c3e50;fill-opacity:1;fill-rule:nonzero;stroke:none"
           id="path146" /></g><g
         style="fill:#2c3e50;fill-opacity:1"
         id="g148"
         transform="translate(147.4531,38.2061)"><path
           inkscape:connector-curvature="0"
           d="m 0,0 c -0.316,-0.251 -0.769,-0.559 -1.356,-0.923 -0.697,-0.481 -1.243,-1.025 -1.639,-1.631 -0.396,-0.604 -0.594,-1.356 -0.594,-2.256 0,-0.857 0.186,-1.497 0.561,-1.919 0.376,-0.423 0.868,-0.634 1.478,-0.634 0.867,0 1.613,0.448 2.233,1.348 l 0,6.745 C 0.544,0.495 0.316,0.251 0,0 M 0.033,6.786 C -0.402,7.312 -1.079,7.573 -1.999,7.573 -2.428,7.573 -2.857,7.507 -3.284,7.372 -3.713,7.238 -4.066,7.037 -4.345,6.771 -3.734,6.566 -3.258,6.248 -2.915,5.814 -2.573,5.381 -2.401,4.838 -2.401,4.185 -2.401,3.734 -2.511,3.33 -2.729,2.972 -2.95,2.613 -3.263,2.329 -3.67,2.12 -4.076,1.911 -4.543,1.808 -5.067,1.808 c -0.706,0 -1.271,0.241 -1.695,0.722 -0.423,0.483 -0.634,1.086 -0.634,1.816 0,1.134 0.61,2.054 1.831,2.761 1.339,0.74 3.009,1.109 5.011,1.109 2.248,0 3.849,-0.492 4.802,-1.479 C 4.709,6.277 5.021,5.704 5.18,5.021 5.341,4.333 5.421,3.376 5.421,2.145 l 0,-8.947 c 0,-0.536 0.051,-0.913 0.153,-1.133 0.102,-0.218 0.281,-0.328 0.538,-0.328 0.353,0 0.76,0.187 1.221,0.562 L 7.669,-8.263 C 7.166,-8.682 6.62,-8.985 6.031,-9.179 c -0.588,-0.192 -1.295,-0.29 -2.12,-0.29 -1.114,0 -1.916,0.247 -2.409,0.74 -0.493,0.493 -0.739,1.134 -0.739,1.927 -0.535,-0.888 -1.236,-1.554 -2.104,-2 -0.867,-0.443 -1.793,-0.667 -2.779,-0.667 -1.252,0 -2.257,0.33 -3.011,0.989 -0.755,0.659 -1.132,1.577 -1.132,2.754 0,1.147 0.374,2.093 1.124,2.843 0.75,0.749 1.911,1.414 3.485,1.991 0.171,0.066 0.728,0.277 1.67,0.635 0.943,0.36 1.623,0.726 2.04,1.101 0.418,0.375 0.627,0.787 0.627,1.236 l 0,2.555 c 0,0.91 -0.217,1.627 -0.65,2.151"
           style="fill:#2c3e50;fill-opacity:1;fill-rule:nonzero;stroke:none"
           id="path150" /></g><g
         style="fill:#2c3e50;fill-opacity:1"
         id="g152"
         transform="translate(166.9941,46.4219)"><path
           inkscape:connector-curvature="0"
           d="M 0,0 C 0.898,0 1.635,-0.107 2.208,-0.321 2.78,-0.535 3.249,-0.852 3.613,-1.269 3.978,-1.686 4.239,-2.227 4.4,-2.891 4.561,-3.555 4.641,-4.443 4.641,-5.557 l 0,-8.85 c 0,-0.611 0.07,-1.087 0.21,-1.43 0.138,-0.343 0.358,-0.583 0.658,-0.723 0.299,-0.139 0.712,-0.208 1.237,-0.208 l 0,-0.691 c -2.185,0.086 -3.632,0.129 -4.338,0.129 -0.674,0 -2.103,-0.043 -4.287,-0.129 l 0,0.691 c 0.448,0 0.802,0.069 1.06,0.208 0.256,0.14 0.441,0.38 0.553,0.723 0.113,0.343 0.168,0.819 0.168,1.43 l 0,10.231 c 0,0.9 -0.146,1.579 -0.44,2.04 -0.295,0.46 -0.828,0.69 -1.599,0.69 -0.599,0 -1.148,-0.166 -1.646,-0.497 -0.498,-0.333 -0.892,-0.79 -1.182,-1.374 -0.287,-0.583 -0.432,-1.228 -0.432,-1.935 l 0,-9.155 c 0,-0.611 0.058,-1.087 0.176,-1.43 0.117,-0.343 0.306,-0.583 0.563,-0.723 0.257,-0.139 0.603,-0.208 1.044,-0.208 l 0,-0.691 c -2.013,0.086 -3.373,0.129 -4.08,0.129 -0.675,0 -2.191,-0.043 -4.546,-0.129 l 0,0.691 c 0.525,0 0.939,0.069 1.245,0.208 0.306,0.14 0.524,0.38 0.659,0.723 0.134,0.343 0.2,0.819 0.2,1.43 l 0,10.375 c 0,1.018 -0.154,1.754 -0.466,2.209 -0.31,0.455 -0.856,0.683 -1.638,0.683 l 0,0.69 c 0.697,-0.064 1.377,-0.096 2.041,-0.096 1.937,0 3.538,0.15 4.802,0.45 l 0,-2.956 C -4.401,-1.017 -2.603,0 0,0"
           style="fill:#2c3e50;fill-opacity:1;fill-rule:nonzero;stroke:none"
           id="path154" /></g><g
         style="fill:#2c3e50;fill-opacity:1"
         id="g156"
         transform="translate(181.3945,38.2061)"><path
           inkscape:connector-curvature="0"
           d="M 0,0 C -0.315,-0.251 -0.769,-0.559 -1.356,-0.923 -2.054,-1.404 -2.599,-1.948 -2.995,-2.554 -3.392,-3.158 -3.59,-3.91 -3.59,-4.81 c 0,-0.857 0.187,-1.497 0.562,-1.919 0.375,-0.423 0.868,-0.634 1.478,-0.634 0.867,0 1.613,0.448 2.234,1.348 l 0,6.745 C 0.543,0.495 0.316,0.251 0,0 M 0.032,6.786 C -0.402,7.312 -1.079,7.573 -2,7.573 -2.428,7.573 -2.856,7.507 -3.284,7.372 -3.713,7.238 -4.065,7.037 -4.345,6.771 -3.733,6.566 -3.258,6.248 -2.915,5.814 -2.573,5.381 -2.401,4.838 -2.401,4.185 -2.401,3.734 -2.511,3.33 -2.73,2.972 -2.95,2.613 -3.263,2.329 -3.67,2.12 -4.077,1.911 -4.543,1.808 -5.066,1.808 c -0.707,0 -1.273,0.241 -1.696,0.722 -0.423,0.483 -0.634,1.086 -0.634,1.816 0,1.134 0.61,2.054 1.832,2.761 1.337,0.74 3.007,1.109 5.01,1.109 2.248,0 3.849,-0.492 4.802,-1.479 C 4.709,6.277 5.021,5.704 5.18,5.021 5.34,4.333 5.421,3.376 5.421,2.145 l 0,-8.947 c 0,-0.536 0.051,-0.913 0.152,-1.133 0.102,-0.218 0.281,-0.328 0.538,-0.328 0.354,0 0.761,0.187 1.221,0.562 L 7.669,-8.263 C 7.166,-8.682 6.62,-8.985 6.031,-9.179 c -0.589,-0.192 -1.295,-0.29 -2.12,-0.29 -1.114,0 -1.917,0.247 -2.409,0.74 -0.493,0.493 -0.739,1.134 -0.739,1.927 -0.534,-0.888 -1.237,-1.554 -2.104,-2 -0.867,-0.443 -1.794,-0.667 -2.779,-0.667 -1.253,0 -2.257,0.33 -3.012,0.989 -0.754,0.659 -1.131,1.577 -1.131,2.754 0,1.147 0.374,2.093 1.124,2.843 0.749,0.749 1.911,1.414 3.485,1.991 0.172,0.066 0.728,0.277 1.671,0.635 0.942,0.36 1.622,0.726 2.039,1.101 0.418,0.375 0.628,0.787 0.628,1.236 l 0,2.555 c 0,0.91 -0.218,1.627 -0.652,2.151"
           style="fill:#2c3e50;fill-opacity:1;fill-rule:nonzero;stroke:none"
           id="path158" /></g><path
         inkscape:connector-curvature="0"
         d="m 194.85,28.727 -169.996,0 0,0.473 169.996,0 z"
         style="fill:#2c3e50;fill-opacity:1;fill-rule:nonzero;stroke:none"
         id="path160" /><g
         id="text3564"
         style="font-style:normal;font-weight:normal;font-size:30px;line-height:125%;font-family:sans-serif;letter-spacing:0px;word-spacing:0px;fill:#2c3e50;fill-opacity:1;stroke:none;stroke-width:1px;stroke-linecap:butt;stroke-linejoin:miter;stroke-opacity:1"
         transform="scale(1,-1)"><path
           id="path3569"
           style="font-style:normal;font-variant:normal;font-weight:bold;font-stretch:normal;font-size:10.3125px;font-family:sans-serif;-inkscape-font-specification:'sans-serif Bold';letter-spacing:-0.67500001px;fill:#2c3e50;fill-opacity:1"
           d="m 77.247719,-59.332626 4.818878,0 0,1.425018 -3.27301,0 0,1.163177 q 0.221557,-0.06042 0.443115,-0.09064 0.226593,-0.03525 0.468292,-0.03525 1.374665,0 2.140045,0.68985 0.765381,0.684815 0.765381,1.913452 0,1.218567 -0.835876,1.908417 -0.830841,0.68985 -2.311249,0.68985 -0.639496,0 -1.268921,-0.125885 -0.62439,-0.12085 -1.243744,-0.37262 l 0,-1.525726 q 0.614319,0.352478 1.163178,0.528717 0.553894,0.176239 1.042328,0.176239 0.704956,0 1.107788,-0.342407 0.407867,-0.347443 0.407867,-0.936585 0,-0.594177 -0.407867,-0.936584 -0.402832,-0.342407 -1.107788,-0.342407 -0.417939,0 -0.891266,0.110779 -0.473328,0.105743 -1.017151,0.332336 l 0,-4.229736 z"
           inkscape:connector-curvature="0" /><path
           id="path3571"
           style="font-style:normal;font-variant:normal;font-weight:bold;font-stretch:normal;font-size:10.3125px;font-family:sans-serif;-inkscape-font-specification:'sans-serif Bold';letter-spacing:-0.67500001px;fill:#2c3e50;fill-opacity:1"
           d="m 83.743129,-59.332626 4.818878,0 0,1.425018 -3.27301,0 0,1.163177 q 0.221557,-0.06042 0.443115,-0.09064 0.226593,-0.03525 0.468292,-0.03525 1.374664,0 2.140045,0.68985 0.765381,0.684815 0.765381,1.913452 0,1.218567 -0.835876,1.908417 -0.830841,0.68985 -2.311249,0.68985 -0.639496,0 -1.268921,-0.125885 -0.62439,-0.12085 -1.243744,-0.37262 l 0,-1.525726 q 0.614319,0.352478 1.163178,0.528717 0.553894,0.176239 1.042328,0.176239 0.704956,0 1.107788,-0.342407 0.407867,-0.347443 0.407867,-0.936585 0,-0.594177 -0.407867,-0.936584 -0.402832,-0.342407 -1.107788,-0.342407 -0.417939,0 -0.891266,0.110779 -0.473328,0.105743 -1.017151,0.332336 l 0,-4.229736 z"
           inkscape:connector-curvature="0" /></g><g
         id="text3573"
         style="font-style:normal;font-weight:normal;font-size:30px;line-height:125%;font-family:sans-serif;letter-spacing:0px;word-spacing:0px;fill:#2c3e50;fill-opacity:1;stroke:none;stroke-width:1px;stroke-linecap:butt;stroke-linejoin:miter;stroke-opacity:1"
         transform="scale(1,-1)"><path
           id="path4378"
           style="font-style:normal;font-variant:normal;font-weight:bold;font-stretch:normal;font-size:6.5625px;font-family:sans-serif;-inkscape-font-specification:'sans-serif Bold';fill:#2c3e50;fill-opacity:1"
           d="m 90.943344,-64.526459 0,1.018982 1.182404,0 0,0.820313 -1.182404,0 0,1.522064 q 0,0.249939 0.09934,0.339661 0.09933,0.08652 0.394134,0.08652 l 0.5896,0 0,0.820312 -0.983734,0 q -0.679321,0 -0.964508,-0.281982 -0.281983,-0.285187 -0.281983,-0.964508 l 0,-1.522064 -0.570373,0 0,-0.820313 0.570373,0 0,-1.018982 1.147156,0 z"
           inkscape:connector-curvature="0" /><path
           id="path4380"
           style="font-style:normal;font-variant:normal;font-weight:bold;font-stretch:normal;font-size:6.5625px;font-family:sans-serif;-inkscape-font-specification:'sans-serif Bold';fill:#2c3e50;fill-opacity:1"
           d="m 96.438797,-62.103973 0,2.185363 -1.153564,0 0,-0.355682 0,-1.310577 q 0,-0.471039 -0.02243,-0.647278 -0.01923,-0.176239 -0.07049,-0.259552 -0.06729,-0.112152 -0.182648,-0.173035 -0.115357,-0.06409 -0.262757,-0.06409 -0.358886,0 -0.563964,0.278778 -0.205079,0.275574 -0.205079,0.765839 l 0,1.765594 -1.147155,0 0,-4.985962 1.147155,0 0,1.922608 q 0.259552,-0.314026 0.551148,-0.461426 0.291595,-0.150604 0.644073,-0.150604 0.621644,0 0.942078,0.381317 0.323639,0.381317 0.323639,1.108704 z"
           inkscape:connector-curvature="0" /></g></g></g></svg>